<svg width="63" height="50" viewBox="0 0 63 50" fill="none" xmlns="http://www.w3.org/2000/svg">
<path d="M39.2528 21.1299V15.194C39.2528 12.1927 39.5308 9.98244 40.0868 8.56316C40.6272 7.16316 41.6455 5.99953 42.9615 5.27824C44.4937 4.46591 46.2114 4.06745 47.9448 4.12225C51.3032 4.12225 53.6976 4.88387 55.1282 6.40712C56.5588 7.93036 57.273 10.8593 57.2707 15.194V21.1299H61.8404V15.1703C61.8404 11.6989 61.4483 8.94284 60.6641 6.90205C59.8397 4.81485 58.3425 3.06235 56.4096 1.92213C54.3621 0.640711 51.6738 0 48.3448 0C45.1062 0 42.4598 0.558222 40.4054 1.67466C38.4123 2.71759 36.8516 4.43083 35.9984 6.51221C35.117 8.62531 34.6774 11.5113 34.6797 15.1703L34.6797 21.1299H39.2528Z" fill="#0E8C88"/>
<path d="M39.5731 29.014V33.9194C39.5731 36.9184 39.8522 39.1287 40.4104 40.5502C40.9496 41.951 41.9683 43.115 43.2852 43.8351C44.8162 44.6475 46.5328 45.0459 48.2651 44.9911C51.628 44.9911 54.0236 44.2295 55.4519 42.7062C56.8802 41.183 57.5944 38.254 57.5944 33.9194V25.9766H62.1641V33.9431C62.1641 37.4144 61.7709 40.1705 60.9844 42.2113C60.1625 44.2989 58.6661 46.0518 56.7333 47.1912C54.6858 48.4839 51.9964 49.1303 48.6651 49.1303C45.4311 49.1303 42.7857 48.5721 40.7291 47.4556C38.736 46.4127 37.1753 44.6995 36.3221 42.6181C35.4407 40.505 35 37.619 35 33.96V29.014H39.5731Z" fill="#0E8C88"/>
<path d="M39.3965 28.9766V32.9766H48.3965V28.9766H39.3965Z" fill="#0E8C88"/>
<path d="M4.56972 47.1065L4.56972 41.1706C4.56972 38.1693 4.84882 35.959 5.40704 34.5397C5.94619 33.139 6.96488 31.9749 8.28178 31.2548C9.81279 30.4425 11.5294 30.044 13.2617 30.0988C16.6201 30.0988 19.0145 30.8604 20.4451 32.3837C21.8757 33.9069 22.591 36.8359 22.591 41.1706V47.1065H27.1573V41.1468C27.1573 37.6755 26.7652 34.9194 25.981 32.8786C25.1568 30.7923 23.661 29.0401 21.7299 27.8987C19.6779 26.6173 16.9884 25.9766 13.6617 25.9766C10.4277 25.9766 7.78231 26.5348 5.72571 27.6512C3.73371 28.6956 2.17336 30.4083 1.3187 32.4888C0.439555 34.6019 0 37.4879 0 41.1468L0 47.1065H4.56972Z" fill="#0E8C88"/>
<path d="M4.58203 43.0018L4.58203 47.1328H13.5325V43.0018H4.58203Z" fill="#0E8C88"/>
<path d="M39.2617 17.0252V21.1562H48.2122V17.0252H39.2617Z" fill="#0E8C88"/>
<path d="M13.665 0C16.9963 0 19.6858 0.641429 21.7334 1.92285C23.6661 3.06222 25.1625 4.81481 25.9844 6.90234C26.7709 8.94313 27.1641 11.6995 27.1641 15.1709V21.1299H22.5947V15.1943C22.5947 10.8597 21.8805 7.93046 20.4521 6.40723C19.0238 4.88401 16.6275 4.12305 13.2646 4.12305C11.5325 4.0683 9.81601 4.46608 8.28516 5.27832C6.96825 5.99844 5.9493 7.16271 5.41016 8.56348C4.85195 9.98275 4.57325 12.1931 4.57324 15.1943L4.57324 21.1299H0L0 15.1709C0 14.198 0.0324109 13.2796 0.0947266 12.416L0.0947266 0.654297L4.6084 0.654297V2.18359L4.50391 2.44141C4.89069 2.15724 5.29976 1.89967 5.72949 1.6748C7.78602 0.558516 10.4312 9.43591e-06 13.665 0Z" fill="#0E8C88"/>
</svg>
