<svg width="434" height="459" viewBox="0 0 434 459" fill="none" xmlns="http://www.w3.org/2000/svg">
<rect x="80.5215" width="361.083" height="392.762" rx="20" transform="rotate(11.8303 80.5215 0)" fill="#034D4B"/>
<path d="M123.974 60.315C125.713 60.6791 127.161 61.334 128.32 62.2796C129.498 63.2129 130.308 64.3797 130.75 65.7802C131.211 67.1682 131.268 68.6922 130.92 70.3522C130.572 72.0122 129.91 73.3775 128.934 74.4481C127.974 75.5219 126.767 76.25 125.314 76.6322C123.879 77.002 122.293 77.0048 120.555 76.6407L115.222 75.5238L118.642 59.1981L123.974 60.315ZM121.012 74.4561C122.923 74.8563 124.495 74.6462 125.73 73.8259C126.964 73.0055 127.778 71.6557 128.172 69.7765C128.569 67.8816 128.37 66.2951 127.575 65.017C126.78 63.7389 125.427 62.8998 123.517 62.4996L120.862 61.9436L118.358 73.9001L121.012 74.4561ZM145.161 74.7083C145.059 75.1938 144.936 75.6257 144.792 76.0041L134.902 73.9326C134.764 74.9826 134.974 75.893 135.532 76.6637C136.09 77.4344 136.87 77.9248 137.872 78.1347C139.313 78.4365 140.457 78.0468 141.304 76.9656L144.194 77.5708C143.553 78.679 142.635 79.5085 141.441 80.0593C140.266 80.5978 138.919 80.7079 137.4 80.3898C136.162 80.1306 135.108 79.6237 134.236 78.8689C133.383 78.1018 132.78 77.158 132.426 76.0377C132.091 74.905 132.063 73.6731 132.342 72.342C132.621 71.0108 133.131 69.8999 133.874 69.0092C134.635 68.1061 135.559 67.4822 136.644 67.1375C137.746 66.796 138.931 66.7581 140.199 67.0238C141.421 67.2797 142.453 67.7739 143.297 68.5064C144.141 69.239 144.727 70.1465 145.056 71.2289C145.389 72.2957 145.424 73.4555 145.161 74.7083ZM142.543 73.2772C142.734 72.2873 142.547 71.4227 141.983 70.6832C141.418 69.9438 140.627 69.4675 139.609 69.2543C138.685 69.0608 137.832 69.1926 137.05 69.65C136.271 70.0916 135.714 70.8005 135.378 71.7765L142.543 73.2772ZM151.028 83.2445C150.01 83.0313 149.132 82.6593 148.393 82.1285C147.673 81.5854 147.144 80.9514 146.805 80.2266C146.47 79.4861 146.369 78.7211 146.501 77.9315L149.273 78.5121C149.205 79.0701 149.367 79.5862 149.758 80.0604C150.168 80.5223 150.733 80.8287 151.454 80.9796C152.205 81.137 152.814 81.1175 153.28 80.9209C153.766 80.7119 154.056 80.3803 154.151 79.9262C154.253 79.4407 154.093 79.0313 153.672 78.698C153.268 78.368 152.593 77.9571 151.65 77.4653C150.735 76.9957 149.998 76.5716 149.44 76.1931C148.882 75.8146 148.43 75.3194 148.084 74.7075C147.754 74.0989 147.677 73.3717 147.854 72.5261C147.999 71.8371 148.333 71.2533 148.859 70.7748C149.387 70.2807 150.062 69.9479 150.882 69.7765C151.719 69.6084 152.63 69.6276 153.617 69.8343C155.089 70.1426 156.192 70.7661 156.927 71.7048C157.681 72.631 157.955 73.7428 157.749 75.0401L155.071 74.4791C155.146 73.8899 155.007 73.3787 154.657 72.9456C154.306 72.5125 153.771 72.2205 153.05 72.0696C152.345 71.922 151.777 71.942 151.346 72.1295C150.914 72.317 150.652 72.63 150.561 73.0684C150.488 73.413 150.553 73.7289 150.754 74.0163C150.956 74.3037 151.222 74.5556 151.552 74.772C151.886 74.9727 152.384 75.2487 153.046 75.5998C153.933 76.0472 154.647 76.4663 155.186 76.8572C155.744 77.2357 156.19 77.7214 156.524 78.3144C156.857 78.9074 156.945 79.6205 156.787 80.4538C156.633 81.1898 156.291 81.8049 155.763 82.299C155.234 82.7932 154.56 83.1259 153.739 83.2973C152.934 83.472 152.03 83.4544 151.028 83.2445ZM163.355 70.3048C162.87 70.2031 162.497 69.9534 162.237 69.5557C161.977 69.1579 161.898 68.7163 162 68.2309C162.101 67.7454 162.351 67.3727 162.749 67.1127C163.147 66.8527 163.588 66.7736 164.074 66.8753C164.543 66.9737 164.908 67.2217 165.168 67.6195C165.428 68.0172 165.507 68.4588 165.406 68.9443C165.304 69.4298 165.054 69.8025 164.657 70.0625C164.259 70.3225 163.825 70.4032 163.355 70.3048ZM164.311 72.2952L161.6 85.2383L158.922 84.6773L161.634 71.7342L164.311 72.2952ZM173.086 73.9125C174.089 74.1224 174.931 74.5113 175.613 75.0792C176.314 75.6348 176.821 76.256 177.135 76.9429L177.529 75.0637L180.23 75.6295L177.475 88.7841C177.225 89.9742 176.753 90.9788 176.059 91.7978C175.361 92.6324 174.479 93.2159 173.412 93.5483C172.361 93.8839 171.177 93.9139 169.862 93.6384C168.108 93.271 166.738 92.551 165.753 91.4782C164.765 90.4212 164.34 89.1715 164.479 87.7293L167.133 88.2853C167.196 89.0014 167.513 89.6318 168.086 90.1768C168.671 90.7406 169.425 91.1193 170.349 91.3129C171.429 91.5392 172.368 91.3924 173.163 90.8724C173.974 90.3558 174.511 89.471 174.773 88.2182L175.226 86.0571C174.644 86.5727 173.917 86.9599 173.046 87.2188C172.193 87.4652 171.273 87.4851 170.287 87.2784C169.159 87.0423 168.185 86.5439 167.363 85.7833C166.561 85.0103 165.992 84.0575 165.657 82.9248C165.341 81.7797 165.319 80.5572 165.591 79.2574C165.864 77.9577 166.371 76.8624 167.113 75.9717C167.871 75.0842 168.77 74.4632 169.809 74.1087C170.866 73.7417 171.959 73.6763 173.086 73.9125ZM176.176 81.5235C176.363 80.6309 176.337 79.8163 176.099 79.0799C175.877 78.3467 175.504 77.7455 174.981 77.2764C174.458 76.8072 173.852 76.5004 173.163 76.3561C172.474 76.2118 171.796 76.2496 171.129 76.4694C170.465 76.6736 169.876 77.0653 169.362 77.6443C168.868 78.2109 168.527 78.9405 168.34 79.8331C168.153 80.7258 168.169 81.5465 168.388 82.2953C168.623 83.0474 169 83.6659 169.52 84.1507C170.058 84.6232 170.664 84.9299 171.338 85.071C172.027 85.2153 172.705 85.1775 173.372 84.9577C174.039 84.7378 174.622 84.3367 175.12 83.7544C175.637 83.1598 175.989 82.4161 176.176 81.5235ZM190.322 77.5227C191.34 77.7359 192.204 78.1376 192.914 78.7277C193.64 79.3211 194.143 80.0804 194.423 81.0055C194.703 81.9306 194.721 82.9804 194.474 84.1549L192.875 91.7892L190.221 91.2332L191.736 83.9982C191.979 82.8394 191.875 81.8939 191.423 81.1618C190.975 80.414 190.25 79.9352 189.248 79.7252C188.245 79.5153 187.381 79.6612 186.655 80.163C185.947 80.6524 185.472 81.4765 185.23 82.6353L183.714 89.8703L181.036 89.3094L183.747 76.3663L186.425 76.9272L186.115 78.4071C186.665 77.9665 187.308 77.6679 188.044 77.5114C188.795 77.3582 189.555 77.362 190.322 77.5227ZM215.007 96.4251L213.41 93.9818C212.463 94.6008 211.487 95.0092 210.481 95.2072C209.478 95.3895 208.405 95.361 207.262 95.1215C206.103 94.8788 205.12 94.4603 204.313 93.8662C203.505 93.2721 202.938 92.5483 202.61 91.6949C202.285 90.8259 202.228 89.8902 202.438 88.888C202.674 87.7605 203.205 86.8255 204.031 86.083C204.86 85.3248 205.962 84.8202 207.339 84.5691C207 83.9259 206.785 83.3497 206.696 82.8405C206.61 82.3157 206.627 81.7636 206.749 81.1842C206.899 80.4638 207.214 79.8595 207.692 79.3711C208.186 78.8861 208.812 78.5513 209.57 78.3668C210.328 78.1822 211.161 78.1851 212.069 78.3754C212.993 78.5689 213.739 78.913 214.305 79.4077C214.891 79.89 215.276 80.4693 215.462 81.1456C215.662 81.8253 215.653 82.5344 215.433 83.2729L212.755 82.712C212.892 82.1359 212.844 81.66 212.613 81.2845C212.384 80.8933 212.011 80.6436 211.494 80.5353C210.978 80.4271 210.522 80.4951 210.128 80.7395C209.752 80.9714 209.518 81.3066 209.426 81.7451C209.338 82.1679 209.367 82.6153 209.513 83.0874C209.678 83.547 209.998 84.1697 210.47 84.9553L213.892 90.1594L216.136 87.7604L219.025 88.3656L216.153 91.5402L215.364 92.3803L218.507 97.1582L215.007 96.4251ZM207.739 92.8429C209.211 93.1513 210.638 92.8206 212.018 91.851L208.606 86.5999C206.604 86.9489 205.447 87.8672 205.135 89.355C204.968 90.1536 205.124 90.8893 205.605 91.5621C206.088 92.2192 206.8 92.6461 207.739 92.8429ZM235.117 83.5953C236.855 83.9594 238.304 84.6143 239.463 85.5599C240.64 86.4932 241.45 87.66 241.892 89.0605C242.354 90.4485 242.41 91.9725 242.063 93.6325C241.715 95.2925 241.053 96.6578 240.077 97.7284C239.116 98.8022 237.909 99.5303 236.456 99.9125C235.022 100.282 233.436 100.285 231.697 99.921L226.365 98.8041L229.785 82.4784L235.117 83.5953ZM232.155 97.7364C234.066 98.1366 235.638 97.9265 236.872 97.1062C238.107 96.2858 238.921 94.936 239.314 93.0568C239.711 91.1619 239.512 89.5754 238.718 88.2973C237.923 87.0192 236.57 86.1801 234.659 85.7799L232.005 85.2239L229.501 97.1804L232.155 97.7364ZM256.304 97.9886C256.202 98.4741 256.079 98.906 255.934 99.2844L246.045 97.2129C245.907 98.2629 246.117 99.1733 246.674 99.944C247.232 100.715 248.012 101.205 249.015 101.415C250.455 101.717 251.599 101.327 252.447 100.246L255.336 100.851C254.696 101.959 253.778 102.789 252.584 103.34C251.408 103.878 250.061 103.988 248.542 103.67C247.305 103.411 246.251 102.904 245.379 102.149C244.526 101.382 243.923 100.438 243.569 99.318C243.234 98.1853 243.206 96.9534 243.485 95.6223C243.763 94.2912 244.274 93.1802 245.016 92.2895C245.778 91.3864 246.701 90.7625 247.787 90.4178C248.888 90.0763 250.073 90.0384 251.342 90.3041C252.563 90.56 253.596 91.0542 254.44 91.7867C255.283 92.5193 255.87 93.4268 256.199 94.5092C256.531 95.576 256.566 96.7358 256.304 97.9886ZM253.686 96.5575C253.877 95.5676 253.69 94.703 253.126 93.9635C252.561 93.2241 251.77 92.7478 250.752 92.5346C249.828 92.3411 248.975 92.473 248.193 92.9303C247.413 93.3719 246.856 94.0808 246.521 95.0568L253.686 96.5575ZM263.022 103.981L268.896 94.2018L271.738 94.7972L264.094 106.707L260.9 106.038L258.701 92.0664L261.567 92.6667L263.022 103.981ZM284.336 103.86C284.234 104.346 284.111 104.778 283.967 105.156L274.077 103.085C273.939 104.135 274.149 105.045 274.707 105.816C275.265 106.586 276.045 107.077 277.047 107.287C278.488 107.589 279.632 107.199 280.479 106.118L283.369 106.723C282.728 107.831 281.81 108.661 280.616 109.211C279.441 109.75 278.093 109.86 276.574 109.542C275.337 109.283 274.283 108.776 273.411 108.021C272.558 107.254 271.955 106.31 271.601 105.19C271.266 104.057 271.238 102.825 271.517 101.494C271.796 100.163 272.306 99.052 273.049 98.1612C273.81 97.2581 274.734 96.6342 275.819 96.2895C276.921 95.948 278.106 95.9102 279.374 96.1759C280.596 96.4317 281.628 96.9259 282.472 97.6585C283.316 98.391 283.902 99.2985 284.231 100.381C284.564 101.448 284.599 102.608 284.336 103.86ZM281.718 102.429C281.909 101.439 281.722 100.575 281.158 99.8353C280.593 99.0959 279.802 98.6195 278.784 98.4063C277.86 98.2128 277.007 98.3447 276.225 98.802C275.446 99.2437 274.889 99.9525 274.553 100.928L281.718 102.429ZM291.868 94.3792L288.227 111.762L285.549 111.201L289.19 93.8183L291.868 94.3792ZM297.313 113.886C296.092 113.63 295.045 113.125 294.173 112.37C293.305 111.599 292.693 110.654 292.34 109.534C291.989 108.398 291.953 107.164 292.232 105.833C292.508 104.518 293.042 103.412 293.834 102.515C294.627 101.619 295.582 101.001 296.699 100.663C297.816 100.325 298.993 100.285 300.23 100.544C301.467 100.804 302.53 101.312 303.417 102.07C304.304 102.828 304.931 103.777 305.298 104.916C305.664 106.055 305.709 107.283 305.434 108.598C305.158 109.914 304.616 111.018 303.808 111.911C302.999 112.805 302.019 113.425 300.868 113.772C299.735 114.107 298.55 114.145 297.313 113.886ZM297.8 111.56C298.489 111.705 299.166 111.675 299.83 111.47C300.509 111.269 301.106 110.88 301.62 110.301C302.133 109.722 302.488 108.962 302.685 108.023C302.882 107.083 302.868 106.254 302.642 105.537C302.419 104.804 302.045 104.21 301.519 103.757C300.993 103.303 300.385 103.004 299.696 102.86C299.007 102.716 298.33 102.746 297.667 102.95C297.018 103.157 296.453 103.554 295.971 104.14C295.492 104.709 295.154 105.464 294.957 106.404C294.665 107.798 294.791 108.952 295.335 109.867C295.898 110.769 296.72 111.334 297.8 111.56ZM311.713 105.157C312.292 104.657 313.016 104.285 313.884 104.042C314.752 103.799 315.68 103.781 316.666 103.987C317.794 104.223 318.76 104.72 319.566 105.477C320.391 106.222 320.965 107.152 321.287 108.265C321.61 109.379 321.635 110.586 321.363 111.886C321.09 113.186 320.58 114.296 319.831 115.219C319.085 116.125 318.182 116.769 317.121 117.152C316.079 117.522 314.994 117.589 313.866 117.353C312.88 117.146 312.044 116.767 311.359 116.215C310.677 115.647 310.155 115.015 309.794 114.318L308.111 122.351L305.434 121.791L309.434 102.693L312.112 103.254L311.713 105.157ZM318.638 111.315C318.825 110.422 318.797 109.616 318.556 108.895C318.334 108.162 317.952 107.567 317.41 107.11C316.887 106.641 316.281 106.334 315.592 106.19C314.918 106.049 314.24 106.086 313.557 106.303C312.89 106.523 312.3 106.922 311.786 107.501C311.288 108.084 310.946 108.821 310.759 109.714C310.572 110.606 310.588 111.427 310.807 112.176C311.045 112.912 311.425 113.515 311.948 113.984C312.487 114.457 313.093 114.764 313.766 114.905C314.455 115.049 315.134 115.011 315.801 114.791C316.487 114.559 317.081 114.144 317.582 113.546C318.099 112.951 318.451 112.208 318.638 111.315ZM341.066 109.098C342.084 109.311 342.948 109.713 343.658 110.303C344.384 110.896 344.887 111.656 345.167 112.581C345.463 113.509 345.488 114.561 345.242 115.735L343.643 123.37L340.989 122.814L342.504 115.579C342.747 114.42 342.643 113.474 342.191 112.742C341.743 111.994 341.018 111.515 340.015 111.306C339.013 111.096 338.149 111.242 337.423 111.743C336.715 112.233 336.24 113.057 335.997 114.216L334.482 121.451L331.828 120.895L333.343 113.66C333.586 112.501 333.481 111.555 333.03 110.823C332.582 110.075 331.856 109.597 330.854 109.387C329.852 109.177 328.988 109.323 328.261 109.824C327.554 110.314 327.079 111.138 326.836 112.297L325.321 119.532L322.643 118.971L325.354 106.028L328.032 106.589L327.722 108.068C328.272 107.628 328.915 107.329 329.65 107.173C330.386 107.016 331.138 107.018 331.905 107.179C332.939 107.396 333.817 107.808 334.539 108.417C335.262 109.027 335.755 109.792 336.02 110.714C336.575 110.013 337.316 109.522 338.241 109.242C339.169 108.946 340.111 108.898 341.066 109.098ZM360.335 119.779C360.234 120.265 360.11 120.697 359.966 121.075L350.076 119.004C349.938 120.054 350.148 120.964 350.706 121.735C351.264 122.505 352.044 122.996 353.046 123.206C354.487 123.508 355.631 123.118 356.479 122.037L359.368 122.642C358.727 123.75 357.809 124.58 356.615 125.13C355.44 125.669 354.093 125.779 352.574 125.461C351.336 125.202 350.282 124.695 349.41 123.94C348.557 123.173 347.954 122.229 347.6 121.109C347.265 119.976 347.237 118.744 347.516 117.413C347.795 116.082 348.305 114.971 349.048 114.08C349.809 113.177 350.733 112.553 351.818 112.209C352.92 111.867 354.105 111.829 355.373 112.095C356.595 112.351 357.627 112.845 358.471 113.577C359.315 114.31 359.901 115.218 360.23 116.3C360.563 117.367 360.598 118.527 360.335 119.779ZM357.717 118.348C357.908 117.358 357.721 116.494 357.157 115.754C356.593 115.015 355.801 114.539 354.783 114.325C353.859 114.132 353.006 114.264 352.224 114.721C351.445 115.163 350.888 115.872 350.552 116.848L357.717 118.348ZM370.834 115.333C371.852 115.547 372.716 115.948 373.426 116.538C374.152 117.132 374.655 117.891 374.935 118.816C375.216 119.741 375.233 120.791 374.987 121.966L373.388 129.6L370.733 129.044L372.249 121.809C372.491 120.65 372.387 119.705 371.936 118.972C371.487 118.225 370.762 117.746 369.76 117.536C368.758 117.326 367.893 117.472 367.167 117.974C366.46 118.463 365.985 119.287 365.742 120.446L364.226 127.681L361.549 127.12L364.26 114.177L366.938 114.738L366.628 116.218C367.178 115.777 367.82 115.479 368.556 115.322C369.308 115.169 370.067 115.173 370.834 115.333ZM382.181 120.211L380.68 127.376C380.579 127.861 380.615 128.237 380.788 128.502C380.98 128.755 381.35 128.938 381.898 129.053L383.543 129.398L383.075 131.629L380.961 131.186C379.755 130.934 378.89 130.458 378.366 129.76C377.842 129.062 377.713 128.078 377.979 126.81L379.48 119.645L377.953 119.326L378.41 117.141L379.937 117.461L380.611 114.243L383.313 114.809L382.639 118.027L385.786 118.686L385.329 120.871L382.181 120.211Z" fill="white"/>
<path d="M118.928 125.655L118.626 127.039L109.506 125.04L109.808 123.657L118.928 125.655ZM126.237 119.911L123.987 130.228C123.632 131.854 123.752 133.142 124.348 134.091C124.959 135.044 125.936 135.668 127.28 135.962C128.624 136.257 129.755 136.103 130.672 135.502C131.609 134.888 132.256 133.76 132.614 132.119L134.864 121.802L136.505 122.161L134.26 132.455C133.807 134.534 132.911 135.976 131.573 136.78C130.25 137.588 128.706 137.798 126.94 137.411C125.174 137.024 123.85 136.185 122.969 134.895C122.103 133.608 121.897 131.924 122.351 129.845L124.596 119.551L126.237 119.911ZM144.283 132.465L147.468 141.738L145.64 141.337L142.96 133.576L137.505 139.554L135.676 139.154L142.423 131.984L139.251 122.763L141.08 123.164L143.741 130.897L149.238 124.952L151.067 125.352L144.283 132.465ZM161.883 127.723L159.633 138.04C159.278 139.666 159.399 140.954 159.994 141.903C160.605 142.856 161.582 143.48 162.927 143.774C164.271 144.069 165.401 143.915 166.319 143.314C167.255 142.7 167.902 141.572 168.26 139.931L170.511 129.613L172.152 129.973L169.906 140.267C169.453 142.346 168.557 143.788 167.219 144.592C165.896 145.4 164.352 145.61 162.586 145.223C160.82 144.836 159.496 143.997 158.615 142.706C157.75 141.419 157.543 139.736 157.997 137.657L160.242 127.363L161.883 127.723ZM177.453 131.135L173.878 147.525L172.237 147.166L175.812 130.775L177.453 131.135ZM192.455 134.422C194.268 134.82 195.752 135.489 196.906 136.43C198.06 137.371 198.846 138.534 199.264 139.919C199.683 141.305 199.706 142.85 199.334 144.554C198.966 146.242 198.303 147.628 197.346 148.713C196.393 149.781 195.196 150.502 193.755 150.874C192.318 151.231 190.693 151.21 188.88 150.813L184.027 149.75L187.602 133.359L192.455 134.422ZM189.177 149.453C191.459 149.953 193.323 149.739 194.77 148.812C196.236 147.872 197.203 146.331 197.67 144.189C198.14 142.032 197.905 140.219 196.964 138.752C196.042 137.272 194.44 136.283 192.159 135.782L188.947 135.079L185.965 148.749L189.177 149.453ZM213.701 148.857C213.578 149.42 213.468 149.846 213.372 150.136L202.752 147.809C202.588 148.789 202.642 149.668 202.914 150.449C203.185 151.229 203.626 151.874 204.235 152.385C204.848 152.879 205.561 153.216 206.373 153.394C207.436 153.627 208.383 153.564 209.215 153.206C210.062 152.851 210.698 152.261 211.123 151.437L212.858 151.817C212.273 152.999 211.378 153.876 210.172 154.447C208.986 155.006 207.619 155.116 206.072 154.777C204.868 154.513 203.848 154.011 203.01 153.271C202.176 152.515 201.593 151.584 201.261 150.48C200.948 149.363 200.936 148.14 201.226 146.811C201.516 145.482 202.035 144.376 202.785 143.492C203.535 142.608 204.444 142.005 205.513 141.682C206.583 141.36 207.727 141.332 208.946 141.599C210.165 141.866 211.17 142.365 211.96 143.095C212.767 143.829 213.313 144.702 213.6 145.715C213.906 146.715 213.939 147.763 213.701 148.857ZM212.046 148.445C212.27 147.495 212.252 146.639 211.992 145.878C211.748 145.12 211.32 144.494 210.707 144C210.094 143.505 209.382 143.169 208.569 142.99C207.35 142.723 206.225 142.886 205.195 143.48C204.165 144.073 203.448 145.07 203.044 146.472L212.046 148.445ZM219.53 157.726C218.061 157.405 216.931 156.805 216.14 155.927C215.367 155.037 215.055 153.994 215.201 152.798L216.889 153.167C216.81 153.904 217.018 154.563 217.513 155.147C218.027 155.718 218.792 156.115 219.808 156.338C220.699 156.533 221.441 156.474 222.033 156.162C222.641 155.853 223.013 155.386 223.149 154.76C223.245 154.323 223.182 153.932 222.962 153.589C222.743 153.246 222.431 152.949 222.027 152.696C221.643 152.432 221.104 152.126 220.41 151.777C219.511 151.318 218.792 150.898 218.253 150.518C217.713 150.138 217.286 149.659 216.969 149.082C216.672 148.493 216.614 147.784 216.795 146.955C216.931 146.33 217.245 145.793 217.736 145.343C218.227 144.894 218.85 144.588 219.606 144.426C220.362 144.264 221.177 144.279 222.053 144.471C223.428 144.773 224.461 145.368 225.152 146.256C225.845 147.129 226.091 148.182 225.887 149.415L224.246 149.055C224.363 148.294 224.197 147.627 223.749 147.054C223.32 146.469 222.637 146.073 221.699 145.868C220.871 145.686 220.156 145.734 219.555 146.012C218.954 146.29 218.59 146.718 218.464 147.297C218.355 147.797 218.413 148.244 218.639 148.637C218.883 149.018 219.211 149.352 219.624 149.639C220.039 149.91 220.606 150.239 221.324 150.626C222.192 151.078 222.874 151.481 223.369 151.836C223.865 152.19 224.259 152.637 224.551 153.176C224.843 153.715 224.915 154.361 224.767 155.115C224.617 155.803 224.295 156.379 223.8 156.844C223.309 157.293 222.693 157.601 221.953 157.766C221.213 157.931 220.405 157.918 219.53 157.726ZM231.254 144.154C230.926 144.082 230.67 143.903 230.487 143.617C230.304 143.331 230.249 143.016 230.324 142.672C230.399 142.328 230.578 142.073 230.86 141.905C231.146 141.722 231.453 141.666 231.781 141.738C232.109 141.81 232.365 141.989 232.548 142.275C232.735 142.545 232.791 142.852 232.716 143.196C232.641 143.54 232.46 143.804 232.175 143.987C231.889 144.17 231.582 144.226 231.254 144.154ZM231.548 146.749L228.755 159.552L227.114 159.192L229.907 146.389L231.548 146.749ZM240.674 148.552C241.877 148.816 242.863 149.327 243.631 150.085C244.399 150.843 244.885 151.694 245.088 152.64L245.696 149.849L247.337 150.209L244.473 163.34C244.218 164.513 243.733 165.496 243.02 166.289C242.322 167.086 241.467 167.628 240.454 167.914C239.439 168.215 238.353 168.239 237.196 167.986C235.555 167.626 234.273 166.936 233.349 165.915C232.441 164.897 232.001 163.686 232.029 162.284L233.646 162.638C233.733 163.591 234.11 164.419 234.775 165.121C235.456 165.828 236.367 166.306 237.508 166.556C238.337 166.737 239.118 166.72 239.853 166.504C240.584 166.304 241.213 165.902 241.738 165.296C242.263 164.69 242.628 163.918 242.832 162.981L243.523 159.815C242.925 160.601 242.118 161.186 241.101 161.569C240.103 161.94 239.003 161.994 237.799 161.73C236.627 161.473 235.632 160.968 234.813 160.216C234.011 159.467 233.453 158.534 233.139 157.417C232.842 156.303 232.836 155.09 233.123 153.777C233.409 152.464 233.918 151.371 234.648 150.499C235.398 149.615 236.292 149.008 237.33 148.679C238.387 148.337 239.501 148.295 240.674 148.552ZM244.3 156.251C244.525 155.219 244.512 154.266 244.26 153.392C244.009 152.518 243.562 151.789 242.919 151.206C242.293 150.627 241.542 150.241 240.666 150.049C239.76 149.85 238.903 149.876 238.095 150.124C237.288 150.373 236.588 150.842 235.995 151.532C235.422 152.208 235.019 153.078 234.787 154.141C234.559 155.189 234.561 156.156 234.793 157.042C235.045 157.916 235.484 158.643 236.111 159.223C236.741 159.787 237.509 160.168 238.416 160.367C239.291 160.558 240.134 160.522 240.945 160.257C241.772 159.996 242.481 159.521 243.074 158.832C243.666 158.143 244.075 157.282 244.3 156.251ZM257.137 152.111C258.668 152.446 259.815 153.197 260.576 154.363C261.34 155.513 261.526 156.987 261.134 158.785L259.497 166.289L257.88 165.934L259.476 158.618C259.779 157.227 259.659 156.087 259.116 155.198C258.589 154.313 257.723 153.738 256.52 153.474C255.285 153.204 254.215 153.379 253.31 153.999C252.405 154.62 251.787 155.688 251.457 157.205L249.932 164.193L248.291 163.833L251.084 151.03L252.725 151.39L252.249 153.57C252.826 152.878 253.542 152.412 254.396 152.173C255.254 151.919 256.168 151.898 257.137 152.111ZM111.256 160.829L110.954 162.212L101.835 160.213L102.136 158.83L111.256 160.829ZM118.565 155.084L116.315 165.401C115.96 167.027 116.081 168.315 116.676 169.264C117.287 170.217 118.265 170.841 119.609 171.135C120.953 171.43 122.083 171.277 123.001 170.675C123.937 170.061 124.584 168.934 124.942 167.292L127.193 156.975L128.834 157.334L126.588 167.628C126.135 169.707 125.239 171.149 123.901 171.953C122.578 172.761 121.034 172.971 119.268 172.584C117.502 172.197 116.178 171.358 115.297 170.068C114.432 168.781 114.225 167.098 114.679 165.018L116.924 154.724L118.565 155.084ZM136.612 167.638L139.797 176.911L137.968 176.51L135.289 168.749L129.833 174.727L128.005 174.327L134.751 167.157L131.58 157.936L133.408 158.337L136.069 166.07L141.567 160.125L143.395 160.525L136.612 167.638ZM157.787 180.853L155.224 173.118L152.2 172.455L150.707 179.302L149.066 178.942L152.641 162.552L157.564 163.63C159.393 164.031 160.68 164.772 161.427 165.853C162.19 166.937 162.416 168.191 162.105 169.613C161.846 170.801 161.281 171.742 160.409 172.436C159.556 173.117 158.438 173.437 157.055 173.396L159.756 181.285L157.787 180.853ZM152.492 171.118L155.797 171.843C157.079 172.124 158.108 172.022 158.885 171.537C159.678 171.055 160.189 170.291 160.417 169.243C160.653 168.165 160.521 167.268 160.022 166.552C159.526 165.821 158.606 165.308 157.262 165.014L153.98 164.295L152.492 171.118ZM175.946 177.437C175.823 178 175.714 178.427 175.618 178.717L164.998 176.39C164.833 177.369 164.887 178.249 165.159 179.029C165.431 179.81 165.871 180.455 166.481 180.965C167.093 181.46 167.806 181.796 168.619 181.974C169.682 182.207 170.629 182.144 171.46 181.786C172.307 181.431 172.943 180.842 173.369 180.018L175.104 180.398C174.518 181.58 173.623 182.457 172.417 183.028C171.231 183.587 169.864 183.697 168.317 183.358C167.114 183.094 166.093 182.592 165.256 181.851C164.422 181.095 163.838 180.165 163.506 179.06C163.193 177.943 163.181 176.72 163.471 175.392C163.761 174.063 164.281 172.956 165.03 172.072C165.78 171.188 166.689 170.585 167.759 170.263C168.828 169.94 169.972 169.912 171.191 170.179C172.41 170.447 173.415 170.945 174.206 171.675C175.012 172.409 175.558 173.282 175.845 174.295C176.151 175.296 176.184 176.343 175.946 177.437ZM174.292 177.026C174.515 176.076 174.497 175.22 174.237 174.459C173.993 173.701 173.565 173.075 172.952 172.58C172.34 172.085 171.627 171.749 170.814 171.571C169.595 171.304 168.47 171.467 167.44 172.06C166.41 172.653 165.693 173.651 165.289 175.053L174.292 177.026ZM181.775 186.307C180.306 185.985 179.176 185.385 178.385 184.507C177.613 183.618 177.3 182.574 177.446 181.378L179.134 181.748C179.055 182.484 179.264 183.144 179.759 183.727C180.273 184.299 181.038 184.696 182.054 184.918C182.944 185.114 183.686 185.055 184.278 184.742C184.886 184.433 185.258 183.966 185.394 183.341C185.49 182.903 185.428 182.513 185.208 182.17C184.988 181.827 184.676 181.529 184.273 181.277C183.888 181.013 183.349 180.706 182.655 180.357C181.757 179.898 181.037 179.479 180.498 179.098C179.959 178.718 179.531 178.24 179.215 177.662C178.917 177.073 178.859 176.364 179.04 175.536C179.176 174.91 179.49 174.373 179.981 173.924C180.472 173.475 181.095 173.169 181.851 173.007C182.607 172.845 183.423 172.86 184.298 173.052C185.673 173.353 186.706 173.948 187.397 174.836C188.091 175.709 188.336 176.762 188.133 177.995L186.492 177.636C186.608 176.875 186.443 176.208 185.994 175.635C185.565 175.049 184.882 174.654 183.944 174.448C183.116 174.267 182.401 174.315 181.8 174.593C181.199 174.871 180.836 175.299 180.709 175.877C180.6 176.377 180.658 176.824 180.884 177.217C181.128 177.599 181.457 177.933 181.869 178.22C182.285 178.491 182.852 178.82 183.57 179.206C184.437 179.659 185.119 180.062 185.615 180.416C186.111 180.771 186.505 181.217 186.796 181.756C187.088 182.295 187.16 182.942 187.012 183.695C186.862 184.383 186.54 184.96 186.045 185.425C185.554 185.874 184.939 186.181 184.199 186.347C183.458 186.512 182.651 186.499 181.775 186.307ZM202.48 183.252C202.357 183.815 202.248 184.242 202.152 184.532L191.532 182.204C191.368 183.184 191.421 184.064 191.693 184.844C191.965 185.624 192.406 186.27 193.015 186.78C193.628 187.275 194.34 187.611 195.153 187.789C196.216 188.022 197.163 187.959 197.994 187.601C198.842 187.246 199.478 186.657 199.903 185.833L201.638 186.213C201.053 187.395 200.157 188.271 198.952 188.843C197.765 189.402 196.399 189.512 194.851 189.173C193.648 188.909 192.627 188.407 191.79 187.666C190.956 186.91 190.373 185.98 190.041 184.875C189.727 183.758 189.716 182.535 190.006 181.207C190.295 179.878 190.815 178.771 191.565 177.887C192.314 177.003 193.224 176.4 194.293 176.077C195.362 175.755 196.507 175.727 197.726 175.994C198.945 176.262 199.95 176.76 200.74 177.49C201.546 178.224 202.093 179.097 202.38 180.11C202.685 181.111 202.719 182.158 202.48 183.252ZM200.826 182.841C201.05 181.891 201.031 181.035 200.772 180.274C200.528 179.516 200.099 178.89 199.487 178.395C198.874 177.9 198.161 177.564 197.348 177.386C196.129 177.119 195.005 177.282 193.975 177.875C192.945 178.468 192.228 179.466 191.824 180.868L200.826 182.841ZM204.594 184.379C204.881 183.066 205.389 181.973 206.12 181.102C206.869 180.218 207.763 179.611 208.801 179.281C209.858 178.94 210.973 178.897 212.145 179.154C213.364 179.421 214.35 179.932 215.103 180.687C215.871 181.445 216.355 182.304 216.554 183.265L217.168 180.452L218.809 180.811L216.017 193.614L214.376 193.255L214.994 190.417C214.397 191.204 213.59 191.788 212.573 192.172C211.575 192.543 210.466 192.595 209.247 192.327C208.091 192.074 207.103 191.571 206.285 190.818C205.482 190.069 204.924 189.136 204.611 188.019C204.314 186.906 204.308 185.692 204.594 184.379ZM215.772 186.853C215.997 185.821 215.984 184.868 215.732 183.994C215.481 183.12 215.034 182.392 214.391 181.809C213.764 181.229 213.013 180.843 212.138 180.652C211.231 180.453 210.374 180.478 209.567 180.727C208.759 180.976 208.059 181.445 207.467 182.134C206.893 182.811 206.491 183.681 206.259 184.744C206.03 185.791 206.032 186.758 206.265 187.644C206.516 188.518 206.956 189.245 207.582 189.825C208.213 190.389 208.981 190.77 209.888 190.969C210.763 191.161 211.606 191.124 212.417 190.86C213.244 190.599 213.953 190.124 214.546 189.434C215.138 188.745 215.547 187.885 215.772 186.853ZM223.701 184.266C224.234 183.548 224.916 183.05 225.746 182.774C226.591 182.5 227.553 182.482 228.632 182.718L228.258 184.43L227.813 184.332C226.625 184.072 225.602 184.184 224.743 184.667C223.884 185.15 223.291 186.142 222.964 187.643L221.404 194.795L219.763 194.435L222.556 181.632L224.197 181.992L223.701 184.266ZM228.903 189.731C229.193 188.402 229.711 187.303 230.457 186.435C231.207 185.551 232.108 184.946 233.162 184.62C234.219 184.278 235.349 184.239 236.553 184.503C238.131 184.849 239.343 185.524 240.189 186.528C241.05 187.536 241.482 188.745 241.486 190.154L239.727 189.769C239.71 188.799 239.39 187.975 238.768 187.298C238.165 186.609 237.324 186.146 236.246 185.91C235.386 185.722 234.57 185.748 233.797 185.988C233.024 186.228 232.349 186.694 231.772 187.387C231.215 188.067 230.813 188.97 230.567 190.096C230.322 191.221 230.309 192.217 230.529 193.085C230.765 193.955 231.185 194.661 231.787 195.203C232.389 195.745 233.12 196.109 233.98 196.298C235.058 196.534 236.013 196.473 236.845 196.115C237.695 195.744 238.332 195.114 238.756 194.224L240.514 194.609C239.931 195.857 239.036 196.767 237.831 197.338C236.625 197.909 235.241 198.024 233.678 197.681C232.475 197.418 231.462 196.917 230.64 196.18C229.822 195.428 229.254 194.501 228.938 193.399C228.625 192.282 228.613 191.06 228.903 189.731ZM251.573 187.746C252.542 187.958 253.365 188.351 254.043 188.926C254.735 189.503 255.209 190.262 255.462 191.202C255.735 192.13 255.74 193.196 255.477 194.4L253.84 201.903L252.223 201.549L253.819 194.233C254.122 192.841 254.002 191.701 253.459 190.813C252.932 189.927 252.066 189.353 250.863 189.089C249.628 188.818 248.558 188.993 247.653 189.614C246.748 190.235 246.13 191.303 245.8 192.819L244.275 199.807L242.634 199.447L246.419 182.095L248.06 182.455L246.592 189.185C247.166 188.508 247.889 188.044 248.763 187.793C249.652 187.546 250.589 187.53 251.573 187.746ZM103.584 196.002L103.282 197.385L94.1628 195.387L94.4646 194.003L103.584 196.002ZM110.894 190.257L108.643 200.575C108.289 202.2 108.409 203.488 109.004 204.437C109.615 205.39 110.593 206.014 111.937 206.309C113.281 206.603 114.412 206.45 115.329 205.848C116.265 205.234 116.912 204.107 117.27 202.465L119.521 192.148L121.162 192.507L118.917 202.801C118.463 204.88 117.567 206.322 116.229 207.126C114.907 207.934 113.362 208.144 111.596 207.757C109.83 207.37 108.507 206.531 107.625 205.241C106.76 203.954 106.554 202.271 107.007 200.191L109.252 189.897L110.894 190.257ZM126.463 193.669L122.888 210.06L121.247 209.7L124.822 193.31L126.463 193.669ZM141.466 196.957C143.279 197.354 144.762 198.023 145.916 198.964C147.07 199.905 147.856 201.068 148.275 202.454C148.693 203.84 148.716 205.384 148.345 207.088C147.976 208.777 147.314 210.163 146.357 211.247C145.403 212.316 144.206 213.036 142.766 213.408C141.328 213.765 139.703 213.745 137.891 213.348L133.038 212.284L136.613 195.893L141.466 196.957ZM138.187 211.987C140.469 212.488 142.333 212.274 143.78 211.346C145.246 210.406 146.213 208.865 146.68 206.723C147.151 204.566 146.915 202.754 145.974 201.286C145.053 199.807 143.451 198.817 141.169 198.317L137.957 197.613L134.975 211.284L138.187 211.987ZM162.711 211.391C162.588 211.954 162.479 212.381 162.383 212.671L151.763 210.343C151.598 211.323 151.652 212.203 151.924 212.983C152.196 213.763 152.636 214.409 153.246 214.919C153.858 215.414 154.571 215.75 155.384 215.928C156.447 216.161 157.394 216.098 158.225 215.74C159.072 215.385 159.708 214.796 160.134 213.972L161.869 214.352C161.283 215.534 160.388 216.41 159.182 216.982C157.996 217.541 156.629 217.651 155.082 217.312C153.879 217.048 152.858 216.546 152.021 215.805C151.187 215.049 150.603 214.119 150.271 213.014C149.958 211.897 149.946 210.674 150.236 209.346C150.526 208.017 151.046 206.91 151.795 206.026C152.545 205.142 153.454 204.539 154.524 204.216C155.593 203.894 156.737 203.866 157.956 204.133C159.175 204.4 160.18 204.899 160.971 205.629C161.777 206.363 162.323 207.236 162.61 208.249C162.916 209.25 162.949 210.297 162.711 211.391ZM161.057 210.98C161.28 210.03 161.262 209.174 161.002 208.413C160.758 207.655 160.33 207.029 159.717 206.534C159.105 206.039 158.392 205.703 157.579 205.525C156.36 205.258 155.235 205.421 154.205 206.014C153.175 206.607 152.458 207.605 152.054 209.007L161.057 210.98ZM168.54 220.261C167.071 219.939 165.941 219.339 165.15 218.461C164.378 217.571 164.065 216.528 164.211 215.332L165.899 215.702C165.82 216.438 166.029 217.098 166.524 217.681C167.038 218.253 167.803 218.65 168.819 218.872C169.709 219.067 170.451 219.009 171.043 218.696C171.651 218.387 172.023 217.92 172.159 217.295C172.255 216.857 172.193 216.467 171.973 216.124C171.753 215.781 171.441 215.483 171.038 215.231C170.653 214.966 170.114 214.66 169.42 214.311C168.522 213.852 167.802 213.433 167.263 213.052C166.724 212.672 166.296 212.193 165.98 211.616C165.682 211.027 165.624 210.318 165.805 209.49C165.941 208.864 166.255 208.327 166.746 207.878C167.237 207.428 167.86 207.123 168.616 206.961C169.372 206.799 170.188 206.814 171.063 207.006C172.438 207.307 173.471 207.902 174.162 208.79C174.856 209.663 175.101 210.716 174.898 211.949L173.257 211.589C173.373 210.829 173.208 210.162 172.759 209.589C172.33 209.003 171.647 208.608 170.709 208.402C169.881 208.221 169.166 208.269 168.565 208.547C167.964 208.824 167.601 209.253 167.474 209.831C167.365 210.331 167.423 210.778 167.649 211.171C167.893 211.552 168.222 211.887 168.634 212.173C169.05 212.445 169.617 212.774 170.335 213.16C171.202 213.613 171.884 214.016 172.38 214.37C172.876 214.725 173.27 215.171 173.561 215.71C173.853 216.249 173.925 216.896 173.777 217.649C173.627 218.337 173.305 218.914 172.81 219.378C172.319 219.828 171.704 220.135 170.963 220.3C170.223 220.466 169.416 220.453 168.54 220.261ZM180.264 206.688C179.936 206.616 179.68 206.437 179.497 206.151C179.314 205.865 179.26 205.551 179.335 205.207C179.41 204.863 179.588 204.607 179.87 204.44C180.156 204.256 180.463 204.201 180.791 204.273C181.119 204.345 181.375 204.524 181.558 204.809C181.745 205.08 181.801 205.387 181.726 205.731C181.651 206.075 181.471 206.338 181.185 206.521C180.899 206.704 180.593 206.76 180.264 206.688ZM180.558 209.283L177.766 222.086L176.125 221.726L178.917 208.923L180.558 209.283ZM189.684 211.086C190.887 211.35 191.873 211.861 192.641 212.619C193.409 213.377 193.895 214.229 194.098 215.174L194.707 212.384L196.348 212.743L193.484 225.875C193.228 227.047 192.743 228.03 192.03 228.824C191.332 229.621 190.477 230.162 189.465 230.448C188.449 230.75 187.363 230.774 186.206 230.52C184.565 230.161 183.283 229.47 182.36 228.449C181.452 227.431 181.011 226.221 181.039 224.818L182.657 225.173C182.744 226.125 183.12 226.953 183.785 227.656C184.466 228.362 185.378 228.84 186.518 229.09C187.347 229.272 188.128 229.254 188.863 229.039C189.595 228.839 190.223 228.436 190.748 227.83C191.273 227.225 191.638 226.453 191.843 225.515L192.533 222.349C191.936 223.136 191.129 223.72 190.112 224.104C189.114 224.475 188.013 224.528 186.809 224.264C185.637 224.008 184.642 223.503 183.824 222.75C183.021 222.001 182.463 221.068 182.15 219.951C181.852 218.837 181.847 217.624 182.133 216.311C182.419 214.998 182.928 213.905 183.658 213.034C184.408 212.15 185.302 211.543 186.34 211.213C187.397 210.872 188.512 210.829 189.684 211.086ZM193.31 218.785C193.536 217.753 193.522 216.8 193.271 215.926C193.019 215.052 192.572 214.324 191.93 213.741C191.303 213.161 190.552 212.775 189.677 212.583C188.77 212.385 187.913 212.41 187.105 212.659C186.298 212.908 185.598 213.377 185.005 214.066C184.432 214.743 184.029 215.613 183.797 216.676C183.569 217.723 183.571 218.69 183.804 219.576C184.055 220.45 184.494 221.177 185.121 221.757C185.751 222.321 186.52 222.702 187.426 222.901C188.301 223.093 189.145 223.056 189.956 222.792C190.782 222.531 191.492 222.056 192.084 221.366C192.677 220.677 193.085 219.817 193.31 218.785ZM206.147 214.645C207.679 214.981 208.825 215.731 209.586 216.897C210.35 218.048 210.537 219.522 210.144 221.319L208.508 228.823L206.89 228.469L208.486 221.153C208.789 219.761 208.67 218.621 208.126 217.732C207.599 216.847 206.734 216.272 205.53 216.009C204.295 215.738 203.226 215.913 202.321 216.534C201.415 217.154 200.798 218.223 200.467 219.739L198.943 226.727L197.302 226.367L200.094 213.564L201.735 213.924L201.26 216.105C201.836 215.412 202.552 214.946 203.407 214.708C204.264 214.454 205.178 214.433 206.147 214.645ZM95.9125 231.175L95.6107 232.558L86.4911 230.56L86.7929 229.176L95.9125 231.175ZM106.504 226.149C108.317 226.547 109.8 227.216 110.954 228.157C112.108 229.098 112.895 230.261 113.313 231.646C113.731 233.032 113.755 234.577 113.383 236.281C113.015 237.969 112.352 239.355 111.395 240.44C110.441 241.508 109.244 242.229 107.804 242.601C106.367 242.958 104.742 242.937 102.929 242.54L98.0761 241.477L101.651 225.086L106.504 226.149ZM103.226 241.18C105.507 241.68 107.372 241.466 108.819 240.539C110.285 239.599 111.251 238.058 111.718 235.916C112.189 233.759 111.954 231.946 111.013 230.479C110.091 228.999 108.489 228.01 106.207 227.509L102.996 226.806L100.014 240.476L103.226 241.18ZM127.749 240.584C127.626 241.147 127.517 241.573 127.421 241.863L116.801 239.536C116.637 240.515 116.69 241.395 116.962 242.176C117.234 242.956 117.675 243.601 118.284 244.112C118.897 244.606 119.609 244.943 120.422 245.121C121.485 245.354 122.432 245.291 123.263 244.932C124.111 244.578 124.747 243.988 125.172 243.164L126.907 243.544C126.322 244.726 125.426 245.603 124.221 246.174C123.034 246.733 121.668 246.843 120.12 246.504C118.917 246.24 117.896 245.738 117.059 244.998C116.225 244.242 115.642 243.311 115.31 242.207C114.996 241.09 114.985 239.867 115.275 238.538C115.564 237.209 116.084 236.103 116.834 235.219C117.583 234.335 118.493 233.732 119.562 233.409C120.631 233.086 121.776 233.059 122.995 233.326C124.214 233.593 125.219 234.092 126.009 234.822C126.815 235.555 127.362 236.429 127.649 237.442C127.954 238.442 127.988 239.49 127.749 240.584ZM126.095 240.172C126.319 239.222 126.3 238.366 126.041 237.605C125.797 236.847 125.368 236.221 124.756 235.727C124.143 235.232 123.43 234.896 122.618 234.717C121.398 234.45 120.274 234.613 119.244 235.207C118.214 235.8 117.497 236.797 117.093 238.199L126.095 240.172ZM133.579 249.453C132.11 249.131 130.979 248.532 130.188 247.654C129.416 246.764 129.103 245.721 129.25 244.524L130.938 244.894C130.859 245.631 131.067 246.29 131.562 246.874C132.076 247.445 132.841 247.842 133.857 248.065C134.748 248.26 135.489 248.201 136.082 247.889C136.689 247.58 137.061 247.113 137.198 246.487C137.293 246.05 137.231 245.659 137.011 245.316C136.791 244.973 136.479 244.676 136.076 244.423C135.691 244.159 135.152 243.852 134.459 243.504C133.56 243.045 132.841 242.625 132.302 242.245C131.762 241.865 131.334 241.386 131.018 240.809C130.721 240.22 130.663 239.511 130.843 238.682C130.98 238.057 131.293 237.52 131.784 237.07C132.275 236.621 132.899 236.315 133.655 236.153C134.411 235.991 135.226 236.006 136.101 236.198C137.477 236.5 138.51 237.095 139.2 237.983C139.894 238.856 140.139 239.909 139.936 241.142L138.295 240.782C138.412 240.021 138.246 239.354 137.798 238.781C137.369 238.196 136.685 237.8 135.748 237.595C134.919 237.413 134.205 237.461 133.604 237.739C133.003 238.017 132.639 238.445 132.513 239.024C132.404 239.524 132.462 239.971 132.687 240.364C132.932 240.745 133.26 241.079 133.672 241.366C134.088 241.637 134.655 241.966 135.373 242.353C136.241 242.805 136.922 243.208 137.418 243.563C137.914 243.917 138.308 244.364 138.6 244.903C138.892 245.442 138.964 246.088 138.815 246.842C138.665 247.53 138.343 248.106 137.849 248.571C137.358 249.02 136.742 249.328 136.002 249.493C135.262 249.658 134.454 249.645 133.579 249.453ZM145.303 235.881C144.975 235.809 144.719 235.63 144.536 235.344C144.352 235.058 144.298 234.743 144.373 234.399C144.448 234.055 144.627 233.8 144.909 233.632C145.194 233.449 145.501 233.393 145.83 233.465C146.158 233.537 146.414 233.716 146.597 234.002C146.784 234.272 146.839 234.579 146.764 234.923C146.689 235.267 146.509 235.531 146.223 235.714C145.938 235.897 145.631 235.952 145.303 235.881ZM145.597 238.476L142.804 251.279L141.163 250.919L143.955 238.116L145.597 238.476ZM154.722 240.279C155.926 240.543 156.911 241.053 157.68 241.811C158.448 242.569 158.933 243.421 159.137 244.367L159.745 241.576L161.386 241.936L158.522 255.067C158.266 256.24 157.782 257.223 157.068 258.016C156.37 258.813 155.515 259.355 154.503 259.641C153.488 259.942 152.401 259.966 151.245 259.713C149.604 259.353 148.322 258.663 147.398 257.641C146.49 256.624 146.05 255.413 146.077 254.011L147.695 254.365C147.782 255.318 148.158 256.146 148.824 256.848C149.505 257.554 150.416 258.033 151.557 258.283C152.385 258.464 153.167 258.447 153.902 258.231C154.633 258.031 155.261 257.628 155.786 257.023C156.312 256.417 156.676 255.645 156.881 254.707L157.571 251.542C156.974 252.328 156.167 252.913 155.15 253.296C154.152 253.667 153.051 253.721 151.848 253.457C150.676 253.2 149.68 252.695 148.862 251.943C148.059 251.194 147.501 250.26 147.188 249.144C146.891 248.03 146.885 246.817 147.171 245.504C147.458 244.19 147.966 243.098 148.697 242.226C149.446 241.342 150.34 240.735 151.378 240.406C152.435 240.064 153.55 240.022 154.722 240.279ZM158.349 247.978C158.574 246.946 158.561 245.993 158.309 245.119C158.058 244.245 157.611 243.516 156.968 242.933C156.341 242.354 155.59 241.968 154.715 241.776C153.809 241.577 152.951 241.603 152.144 241.851C151.336 242.1 150.636 242.569 150.044 243.258C149.47 243.935 149.068 244.805 148.836 245.868C148.607 246.916 148.609 247.883 148.842 248.769C149.093 249.643 149.533 250.37 150.159 250.95C150.79 251.514 151.558 251.895 152.465 252.093C153.34 252.285 154.183 252.249 154.994 251.984C155.821 251.723 156.53 251.248 157.123 250.559C157.715 249.87 158.124 249.009 158.349 247.978ZM171.185 243.838C172.717 244.173 173.863 244.924 174.624 246.09C175.389 247.24 175.575 248.714 175.183 250.512L173.546 258.016L171.929 257.661L173.524 250.345C173.828 248.954 173.708 247.814 173.165 246.925C172.637 246.039 171.772 245.465 170.569 245.201C169.334 244.931 168.264 245.106 167.359 245.726C166.454 246.347 165.836 247.415 165.505 248.932L163.981 255.919L162.34 255.56L165.133 242.757L166.774 243.116L166.298 245.297C166.875 244.605 167.591 244.139 168.445 243.9C169.303 243.646 170.216 243.625 171.185 243.838ZM187.975 261.374C186.506 261.052 185.376 260.452 184.585 259.575C183.813 258.685 183.5 257.642 183.646 256.445L185.334 256.815C185.255 257.551 185.464 258.211 185.959 258.795C186.473 259.366 187.238 259.763 188.254 259.986C189.144 260.181 189.886 260.122 190.478 259.81C191.086 259.501 191.458 259.034 191.594 258.408C191.69 257.971 191.628 257.58 191.408 257.237C191.188 256.894 190.876 256.596 190.473 256.344C190.088 256.08 189.549 255.773 188.855 255.425C187.957 254.966 187.237 254.546 186.698 254.166C186.159 253.785 185.731 253.307 185.415 252.73C185.117 252.14 185.059 251.432 185.24 250.603C185.376 249.978 185.69 249.44 186.181 248.991C186.672 248.542 187.295 248.236 188.051 248.074C188.807 247.912 189.623 247.927 190.498 248.119C191.873 248.42 192.906 249.015 193.597 249.904C194.291 250.777 194.536 251.829 194.333 253.062L192.692 252.703C192.808 251.942 192.643 251.275 192.194 250.702C191.765 250.117 191.082 249.721 190.144 249.516C189.316 249.334 188.601 249.382 188 249.66C187.399 249.938 187.036 250.366 186.909 250.944C186.8 251.445 186.858 251.891 187.084 252.285C187.328 252.666 187.657 253 188.069 253.287C188.485 253.558 189.052 253.887 189.77 254.274C190.637 254.726 191.319 255.129 191.815 255.484C192.311 255.838 192.705 256.285 192.996 256.824C193.288 257.363 193.36 258.009 193.212 258.763C193.062 259.451 192.74 260.027 192.245 260.492C191.754 260.941 191.139 261.249 190.399 261.414C189.658 261.579 188.851 261.566 187.975 261.374ZM208.902 252.349L197.199 269.513L195.488 269.138L199.302 263.586L196.828 249.703L198.633 250.098L200.611 261.981L207.214 251.979L208.902 252.349ZM212.701 266.793C211.232 266.471 210.102 265.871 209.311 264.993C208.539 264.103 208.226 263.06 208.372 261.864L210.06 262.234C209.981 262.97 210.189 263.63 210.684 264.213C211.198 264.785 211.963 265.182 212.979 265.404C213.87 265.599 214.612 265.541 215.204 265.228C215.812 264.919 216.184 264.452 216.32 263.827C216.416 263.389 216.353 262.999 216.134 262.656C215.914 262.313 215.602 262.015 215.198 261.763C214.814 261.498 214.275 261.192 213.581 260.843C212.682 260.384 211.963 259.965 211.424 259.584C210.884 259.204 210.457 258.725 210.14 258.148C209.843 257.559 209.785 256.85 209.966 256.022C210.102 255.396 210.416 254.859 210.907 254.41C211.398 253.96 212.021 253.655 212.777 253.493C213.533 253.331 214.348 253.346 215.224 253.538C216.599 253.839 217.632 254.434 218.323 255.322C219.017 256.195 219.262 257.248 219.058 258.481L217.417 258.121C217.534 257.361 217.368 256.694 216.92 256.121C216.491 255.535 215.808 255.14 214.87 254.934C214.042 254.753 213.327 254.801 212.726 255.079C212.125 255.356 211.761 255.784 211.635 256.363C211.526 256.863 211.584 257.31 211.81 257.703C212.054 258.084 212.382 258.418 212.795 258.705C213.21 258.977 213.777 259.306 214.495 259.692C215.363 260.145 216.045 260.548 216.541 260.902C217.036 261.257 217.43 261.703 217.722 262.242C218.014 262.781 218.086 263.428 217.938 264.181C217.788 264.869 217.466 265.446 216.971 265.91C216.48 266.36 215.864 266.667 215.124 266.832C214.384 266.998 213.576 266.985 212.701 266.793ZM224.909 257.306L223.176 265.255C223.005 266.037 223.036 266.609 223.268 266.971C223.5 267.333 223.992 267.596 224.742 267.761L226.242 268.09L225.935 269.496L224.177 269.111C223.02 268.858 222.219 268.404 221.772 267.749C221.329 267.078 221.242 266.126 221.511 264.891L223.245 256.942L221.463 256.551L221.765 255.168L223.547 255.558L224.247 252.346L225.912 252.71L225.211 255.923L228.728 256.694L228.426 258.077L224.909 257.306ZM241.762 265.57C241.64 266.132 241.53 266.559 241.434 266.849L230.814 264.522C230.65 265.501 230.703 266.381 230.975 267.161C231.247 267.942 231.688 268.587 232.297 269.097C232.91 269.592 233.623 269.928 234.435 270.106C235.498 270.339 236.445 270.276 237.277 269.918C238.124 269.563 238.76 268.974 239.185 268.15L240.92 268.53C240.335 269.712 239.439 270.589 238.234 271.16C237.048 271.719 235.681 271.829 234.133 271.49C232.93 271.226 231.91 270.724 231.072 269.983C230.238 269.227 229.655 268.297 229.323 267.192C229.01 266.075 228.998 264.852 229.288 263.524C229.578 262.195 230.097 261.089 230.847 260.205C231.596 259.321 232.506 258.717 233.575 258.395C234.645 258.072 235.789 258.044 237.008 258.311C238.227 258.579 239.232 259.077 240.022 259.807C240.828 260.541 241.375 261.414 241.662 262.427C241.967 263.428 242.001 264.475 241.762 265.57ZM240.108 265.158C240.332 264.208 240.314 263.352 240.054 262.591C239.81 261.833 239.381 261.207 238.769 260.712C238.156 260.217 237.443 259.881 236.631 259.703C235.412 259.436 234.287 259.599 233.257 260.192C232.227 260.785 231.51 261.783 231.106 263.185L240.108 265.158ZM261.307 263.588C262.808 263.916 263.923 264.66 264.653 265.819C265.401 266.966 265.58 268.439 265.188 270.236L263.551 277.74L261.933 277.385L263.529 270.069C263.833 268.678 263.728 267.541 263.217 266.659C262.705 265.777 261.871 265.21 260.714 264.956C259.511 264.693 258.462 264.88 257.57 265.52C256.677 266.16 256.065 267.238 255.734 268.754L254.22 275.695L252.603 275.341L254.198 268.025C254.502 266.633 254.398 265.497 253.886 264.615C253.374 263.733 252.532 263.163 251.36 262.906C250.157 262.643 249.108 262.831 248.216 263.47C247.323 264.11 246.711 265.188 246.38 266.704L244.866 273.645L243.225 273.286L246.018 260.483L247.659 260.842L247.178 263.046C247.758 262.338 248.468 261.863 249.307 261.621C250.149 261.363 251.031 261.336 251.953 261.538C253.063 261.781 253.974 262.259 254.686 262.972C255.414 263.688 255.854 264.604 256.004 265.718C256.569 264.777 257.324 264.131 258.268 263.781C259.232 263.419 260.245 263.355 261.307 263.588ZM88.2407 266.348L87.939 267.731L78.8194 265.733L79.1212 264.349L88.2407 266.348ZM109.945 263.979L106.416 280.159L104.775 279.799L107.593 266.879L99.0082 278.535L97.8126 278.273L94.8533 264.136L92.0454 277.009L90.4044 276.65L93.9334 260.47L95.6682 260.85L98.8692 276.244L108.187 263.594L109.945 263.979ZM115.701 282.39C114.498 282.126 113.47 281.622 112.617 280.879C111.782 280.123 111.192 279.19 110.844 278.082C110.515 276.962 110.495 275.737 110.785 274.409C111.075 273.08 111.609 271.985 112.386 271.123C113.167 270.246 114.1 269.648 115.185 269.329C116.273 268.994 117.419 268.958 118.623 269.222C119.826 269.486 120.853 269.997 121.702 270.757C122.571 271.504 123.17 272.438 123.498 273.558C123.846 274.666 123.875 275.885 123.585 277.214C123.299 278.527 122.765 279.622 121.985 280.499C121.204 281.376 120.261 281.981 119.157 282.312C118.057 282.628 116.905 282.654 115.701 282.39ZM116.013 280.96C116.857 281.145 117.68 281.128 118.48 280.911C119.285 280.677 119.989 280.226 120.594 279.556C121.217 278.873 121.652 277.969 121.898 276.844C122.143 275.718 122.13 274.725 121.86 273.863C121.593 272.985 121.141 272.28 120.504 271.747C119.87 271.199 119.131 270.832 118.287 270.647C117.443 270.462 116.619 270.486 115.815 270.72C115.014 270.937 114.31 271.389 113.702 272.075C113.112 272.748 112.695 273.648 112.45 274.773C112.204 275.899 112.207 276.899 112.459 277.773C112.729 278.635 113.174 279.338 113.792 279.883C114.429 280.416 115.169 280.775 116.013 280.96ZM129.805 273.319L128.071 281.268C127.9 282.05 127.931 282.621 128.163 282.983C128.396 283.346 128.887 283.609 129.637 283.773L131.137 284.102L130.831 285.509L129.072 285.124C127.916 284.87 127.114 284.416 126.667 283.761C126.224 283.091 126.137 282.138 126.406 280.903L128.14 272.954L126.359 272.564L126.66 271.18L128.442 271.571L129.143 268.358L130.807 268.723L130.107 271.935L133.623 272.706L133.321 274.089L129.805 273.319ZM137.677 271.064C137.349 270.992 137.093 270.813 136.91 270.527C136.726 270.241 136.672 269.926 136.747 269.582C136.822 269.238 137.001 268.983 137.283 268.815C137.569 268.632 137.875 268.577 138.204 268.648C138.532 268.72 138.788 268.899 138.971 269.185C139.158 269.455 139.213 269.762 139.138 270.106C139.063 270.45 138.883 270.714 138.598 270.897C138.312 271.08 138.005 271.136 137.677 271.064ZM137.971 273.659L135.178 286.462L133.537 286.102L136.33 273.299L137.971 273.659ZM144.456 288.692C143.253 288.428 142.225 287.924 141.372 287.18C140.538 286.424 139.947 285.492 139.599 284.384C139.27 283.263 139.251 282.039 139.54 280.71C139.83 279.381 140.364 278.286 141.141 277.425C141.922 276.548 142.855 275.949 143.94 275.63C145.028 275.295 146.174 275.26 147.378 275.524C148.581 275.787 149.608 276.299 150.457 277.058C151.326 277.806 151.925 278.74 152.254 279.86C152.601 280.968 152.63 282.187 152.341 283.515C152.054 284.828 151.521 285.924 150.74 286.801C149.959 287.678 149.016 288.282 147.912 288.614C146.812 288.929 145.66 288.955 144.456 288.692ZM144.768 287.261C145.612 287.446 146.435 287.43 147.235 287.212C148.04 286.979 148.744 286.527 149.349 285.857C149.973 285.175 150.407 284.271 150.653 283.145C150.898 282.02 150.886 281.026 150.615 280.164C150.348 279.287 149.896 278.582 149.259 278.049C148.625 277.5 147.886 277.134 147.042 276.949C146.198 276.764 145.374 276.788 144.57 277.021C143.769 277.239 143.065 277.691 142.457 278.376C141.868 279.05 141.45 279.949 141.205 281.075C140.959 282.2 140.962 283.2 141.214 284.074C141.484 284.936 141.929 285.64 142.547 286.185C143.184 286.717 143.924 287.076 144.768 287.261ZM162.781 278.85C164.313 279.186 165.459 279.937 166.22 281.102C166.984 282.253 167.171 283.727 166.778 285.525L165.142 293.028L163.524 292.674L165.12 285.358C165.423 283.966 165.304 282.826 164.761 281.937C164.233 281.052 163.368 280.477 162.164 280.214C160.93 279.943 159.86 280.118 158.955 280.739C158.05 281.359 157.432 282.428 157.101 283.944L155.577 290.932L153.936 290.572L156.728 277.769L158.369 278.129L157.894 280.31C158.471 279.617 159.186 279.152 160.041 278.913C160.899 278.659 161.812 278.638 162.781 278.85ZM183.632 279.906C185.445 280.303 186.929 280.973 188.083 281.913C189.237 282.854 190.023 284.017 190.441 285.403C190.86 286.789 190.883 288.334 190.511 290.038C190.143 291.726 189.48 293.112 188.523 294.196C187.57 295.265 186.373 295.986 184.932 296.358C183.495 296.714 181.87 296.694 180.057 296.297L175.204 295.233L178.779 278.843L183.632 279.906ZM180.354 294.937C182.636 295.437 184.5 295.223 185.947 294.295C187.413 293.355 188.38 291.814 188.847 289.673C189.317 287.516 189.082 285.703 188.141 284.236C187.219 282.756 185.618 281.766 183.336 281.266L180.124 280.562L177.142 294.233L180.354 294.937ZM204.878 294.341C204.755 294.903 204.645 295.33 204.549 295.62L193.929 293.293C193.765 294.272 193.819 295.152 194.091 295.932C194.363 296.713 194.803 297.358 195.412 297.868C196.025 298.363 196.738 298.699 197.551 298.877C198.613 299.11 199.56 299.048 200.392 298.689C201.239 298.334 201.875 297.745 202.301 296.921L204.035 297.301C203.45 298.483 202.555 299.36 201.349 299.931C200.163 300.49 198.796 300.6 197.249 300.261C196.045 299.997 195.025 299.495 194.187 298.755C193.353 297.999 192.77 297.068 192.438 295.963C192.125 294.846 192.113 293.624 192.403 292.295C192.693 290.966 193.213 289.86 193.962 288.976C194.712 288.092 195.621 287.488 196.691 287.166C197.76 286.843 198.904 286.815 200.123 287.083C201.342 287.35 202.347 287.848 203.138 288.579C203.944 289.312 204.49 290.185 204.777 291.198C205.083 292.199 205.116 293.246 204.878 294.341ZM203.223 293.929C203.447 292.979 203.429 292.123 203.169 291.362C202.925 290.604 202.497 289.978 201.884 289.483C201.271 288.989 200.559 288.652 199.746 288.474C198.527 288.207 197.402 288.37 196.372 288.963C195.342 289.557 194.625 290.554 194.221 291.956L203.223 293.929ZM210.707 303.21C209.238 302.888 208.108 302.288 207.317 301.411C206.545 300.521 206.232 299.478 206.378 298.281L208.066 298.651C207.987 299.387 208.195 300.047 208.69 300.631C209.205 301.202 209.969 301.599 210.985 301.822C211.876 302.017 212.618 301.958 213.21 301.646C213.818 301.337 214.19 300.869 214.326 300.244C214.422 299.806 214.36 299.416 214.14 299.073C213.92 298.73 213.608 298.432 213.204 298.18C212.82 297.916 212.281 297.609 211.587 297.261C210.688 296.802 209.969 296.382 209.43 296.002C208.891 295.621 208.463 295.143 208.146 294.566C207.849 293.976 207.791 293.267 207.972 292.439C208.108 291.814 208.422 291.276 208.913 290.827C209.404 290.378 210.027 290.072 210.783 289.91C211.539 289.748 212.355 289.763 213.23 289.955C214.605 290.256 215.638 290.851 216.329 291.74C217.023 292.612 217.268 293.665 217.064 294.898L215.423 294.539C215.54 293.778 215.374 293.111 214.926 292.538C214.497 291.953 213.814 291.557 212.876 291.352C212.048 291.17 211.333 291.218 210.732 291.496C210.131 291.774 209.767 292.202 209.641 292.78C209.532 293.28 209.59 293.727 209.816 294.121C210.06 294.502 210.388 294.836 210.801 295.123C211.216 295.394 211.783 295.723 212.501 296.11C213.369 296.562 214.051 296.965 214.547 297.32C215.042 297.674 215.436 298.121 215.728 298.66C216.02 299.198 216.092 299.845 215.944 300.599C215.794 301.286 215.472 301.863 214.977 302.328C214.486 302.777 213.871 303.084 213.13 303.25C212.39 303.415 211.582 303.402 210.707 303.21ZM222.431 289.637C222.103 289.565 221.847 289.386 221.664 289.101C221.481 288.815 221.426 288.5 221.502 288.156C221.577 287.812 221.755 287.556 222.037 287.389C222.323 287.206 222.63 287.15 222.958 287.222C223.286 287.294 223.542 287.473 223.725 287.759C223.912 288.029 223.968 288.336 223.893 288.68C223.818 289.024 223.637 289.287 223.352 289.47C223.066 289.654 222.759 289.709 222.431 289.637ZM222.725 292.232L219.932 305.035L218.291 304.676L221.084 291.873L222.725 292.232ZM231.851 294.036C233.054 294.299 234.04 294.81 234.808 295.568C235.576 296.326 236.062 297.178 236.265 298.123L236.874 295.333L238.515 295.693L235.65 308.824C235.395 309.996 234.91 310.979 234.197 311.773C233.499 312.57 232.644 313.112 231.631 313.398C230.616 313.699 229.53 313.723 228.373 313.47C226.732 313.11 225.45 312.42 224.526 311.398C223.618 310.38 223.178 309.17 223.206 307.767L224.823 308.122C224.91 309.075 225.287 309.902 225.952 310.605C226.633 311.311 227.544 311.789 228.685 312.039C229.514 312.221 230.295 312.204 231.03 311.988C231.761 311.788 232.39 311.385 232.915 310.78C233.44 310.174 233.805 309.402 234.009 308.464L234.7 305.299C234.103 306.085 233.295 306.67 232.278 307.053C231.28 307.424 230.18 307.478 228.976 307.214C227.804 306.957 226.809 306.452 225.99 305.7C225.188 304.95 224.63 304.017 224.316 302.9C224.019 301.787 224.013 300.573 224.3 299.26C224.586 297.947 225.095 296.855 225.825 295.983C226.575 295.099 227.469 294.492 228.507 294.163C229.564 293.821 230.678 293.779 231.851 294.036ZM235.477 301.734C235.702 300.703 235.689 299.75 235.438 298.876C235.186 298.002 234.739 297.273 234.097 296.69C233.47 296.11 232.719 295.725 231.843 295.533C230.937 295.334 230.08 295.359 229.272 295.608C228.465 295.857 227.765 296.326 227.172 297.015C226.599 297.692 226.196 298.562 225.964 299.625C225.736 300.672 225.738 301.639 225.97 302.526C226.222 303.4 226.661 304.127 227.288 304.706C227.918 305.27 228.687 305.652 229.593 305.85C230.468 306.042 231.311 306.006 232.122 305.741C232.949 305.48 233.659 305.005 234.251 304.316C234.843 303.627 235.252 302.766 235.477 301.734ZM248.314 297.594C249.845 297.93 250.992 298.681 251.753 299.847C252.517 300.997 252.703 302.471 252.311 304.269L250.675 311.772L249.057 311.418L250.653 304.102C250.956 302.711 250.836 301.57 250.293 300.682C249.766 299.796 248.9 299.222 247.697 298.958C246.462 298.687 245.392 298.862 244.487 299.483C243.582 300.104 242.964 301.172 242.634 302.688L241.11 309.676L239.468 309.317L242.261 296.514L243.902 296.873L243.426 299.054C244.003 298.361 244.719 297.896 245.573 297.657C246.431 297.403 247.345 297.382 248.314 297.594ZM80.569 301.521L80.2673 302.904L71.1477 300.906L71.4494 299.522L80.569 301.521ZM92.245 305.038C93.1297 305.412 93.8088 306.052 94.2825 306.958C94.7563 307.865 94.8823 308.826 94.6607 309.842C94.48 310.671 94.1053 311.375 93.5367 311.955C92.9872 312.522 92.2712 312.914 91.3889 313.13C90.51 313.331 89.5157 313.309 88.406 313.066L82.7326 311.823L86.3077 295.432L91.8169 296.639C93.4736 297.002 94.6482 297.661 95.3407 298.616C96.0489 299.573 96.27 300.662 96.0041 301.881C95.7824 302.897 95.3282 303.666 94.6414 304.187C93.958 304.692 93.1592 304.976 92.245 305.038ZM86.3683 303.037L90.1897 303.875C91.2993 304.118 92.2074 304.047 92.9138 303.661C93.6393 303.263 94.1026 302.603 94.3038 301.681C94.5015 300.774 94.3519 299.996 93.8549 299.346C93.3735 298.7 92.5545 298.251 91.398 297.997L87.647 297.175L86.3683 303.037ZM88.5905 311.657C89.7784 311.917 90.7619 311.838 91.541 311.419C92.3358 311.003 92.8406 310.303 93.0554 309.318C93.2702 308.334 93.0891 307.475 92.5119 306.742C91.9538 305.998 91.0887 305.497 89.9165 305.24L86.0717 304.397L84.6755 310.799L88.5905 311.657ZM100.658 304.719C101.192 304.001 101.874 303.503 102.704 303.227C103.549 302.953 104.511 302.935 105.59 303.171L105.216 304.883L104.771 304.785C103.583 304.525 102.56 304.636 101.701 305.12C100.842 305.603 100.249 306.595 99.922 308.096L98.3621 315.248L96.721 314.888L99.5135 302.085L101.155 302.445L100.658 304.719ZM105.866 310.16C106.152 308.847 106.661 307.755 107.391 306.883C108.141 305.999 109.035 305.392 110.073 305.063C111.13 304.721 112.245 304.679 113.417 304.936C114.636 305.203 115.622 305.714 116.374 306.468C117.142 307.226 117.626 308.086 117.826 309.047L118.44 306.233L120.081 306.592L117.288 319.395L115.647 319.036L116.266 316.199C115.669 316.985 114.862 317.57 113.845 317.953C112.847 318.324 111.738 318.376 110.519 318.109C109.362 317.855 108.375 317.352 107.557 316.599C106.754 315.85 106.196 314.917 105.883 313.8C105.585 312.687 105.58 311.473 105.866 310.16ZM117.043 312.634C117.268 311.603 117.255 310.65 117.004 309.776C116.752 308.901 116.305 308.173 115.663 307.59C115.036 307.01 114.285 306.625 113.41 306.433C112.503 306.234 111.646 306.259 110.838 306.508C110.031 306.757 109.331 307.226 108.738 307.915C108.165 308.592 107.762 309.462 107.53 310.525C107.302 311.572 107.304 312.539 107.536 313.426C107.788 314.3 108.227 315.027 108.854 315.606C109.484 316.17 110.253 316.551 111.159 316.75C112.034 316.942 112.878 316.906 113.689 316.641C114.515 316.38 115.225 315.905 115.817 315.216C116.41 314.527 116.818 313.666 117.043 312.634ZM129.88 308.494C131.412 308.83 132.558 309.581 133.319 310.747C134.083 311.897 134.269 313.371 133.877 315.169L132.241 322.672L130.623 322.318L132.219 315.002C132.522 313.61 132.402 312.47 131.859 311.582C131.332 310.696 130.467 310.122 129.263 309.858C128.028 309.587 126.959 309.762 126.053 310.383C125.148 311.004 124.531 312.072 124.2 313.588L122.676 320.576L121.035 320.216L123.827 307.413L125.468 307.773L124.993 309.954C125.569 309.261 126.285 308.796 127.14 308.557C127.997 308.303 128.911 308.282 129.88 308.494ZM136.521 316.878C136.808 315.565 137.324 314.474 138.07 313.606C138.82 312.722 139.714 312.115 140.752 311.786C141.809 311.444 142.923 311.402 144.096 311.659C145.221 311.905 146.177 312.401 146.964 313.147C147.751 313.893 148.26 314.75 148.492 315.718L150.087 308.402L151.728 308.761L147.944 326.113L146.303 325.754L146.926 322.893C146.341 323.699 145.54 324.293 144.523 324.676C143.51 325.044 142.401 325.095 141.198 324.832C140.026 324.575 139.03 324.07 138.212 323.317C137.409 322.568 136.851 321.635 136.538 320.518C136.24 319.405 136.235 318.191 136.521 316.878ZM147.699 319.352C147.924 318.321 147.911 317.368 147.659 316.494C147.408 315.619 146.961 314.891 146.318 314.308C145.691 313.728 144.94 313.343 144.065 313.151C143.158 312.952 142.301 312.977 141.494 313.226C140.686 313.475 139.986 313.944 139.394 314.633C138.82 315.31 138.418 316.18 138.186 317.243C137.957 318.29 137.959 319.257 138.192 320.144C138.443 321.018 138.882 321.745 139.509 322.324C140.14 322.888 140.908 323.269 141.815 323.468C142.69 323.66 143.533 323.624 144.344 323.359C145.17 323.098 145.88 322.623 146.473 321.934C147.065 321.245 147.474 320.384 147.699 319.352ZM166.551 313.017C168.364 313.414 169.848 314.084 171.002 315.024C172.156 315.965 172.942 317.128 173.36 318.514C173.778 319.9 173.802 321.445 173.43 323.149C173.062 324.837 172.399 326.223 171.442 327.307C170.489 328.376 169.291 329.097 167.851 329.469C166.414 329.825 164.789 329.805 162.976 329.408L158.123 328.344L161.698 311.954L166.551 313.017ZM163.273 328.048C165.555 328.548 167.419 328.334 168.866 327.406C170.332 326.466 171.298 324.925 171.766 322.784C172.236 320.627 172.001 318.814 171.06 317.347C170.138 315.867 168.536 314.877 166.254 314.377L163.043 313.673L160.061 327.344L163.273 328.048ZM187.796 327.452C187.674 328.014 187.564 328.441 187.468 328.731L176.848 326.404C176.684 327.383 176.737 328.263 177.009 329.043C177.281 329.824 177.722 330.469 178.331 330.979C178.944 331.474 179.657 331.81 180.469 331.988C181.532 332.221 182.479 332.159 183.311 331.8C184.158 331.445 184.794 330.856 185.219 330.032L186.954 330.412C186.369 331.594 185.473 332.471 184.268 333.042C183.082 333.601 181.715 333.711 180.168 333.372C178.964 333.108 177.944 332.606 177.106 331.866C176.272 331.11 175.689 330.179 175.357 329.074C175.044 327.957 175.032 326.735 175.322 325.406C175.612 324.077 176.131 322.971 176.881 322.087C177.631 321.203 178.54 320.599 179.609 320.277C180.679 319.954 181.823 319.926 183.042 320.194C184.261 320.461 185.266 320.959 186.056 321.69C186.863 322.423 187.409 323.296 187.696 324.309C188.001 325.31 188.035 326.357 187.796 327.452ZM186.142 327.04C186.366 326.09 186.348 325.234 186.088 324.473C185.844 323.715 185.415 323.089 184.803 322.594C184.19 322.1 183.477 321.763 182.665 321.585C181.446 321.318 180.321 321.481 179.291 322.074C178.261 322.668 177.544 323.665 177.14 325.067L186.142 327.04ZM193.626 336.321C192.157 335.999 191.027 335.399 190.235 334.522C189.463 333.632 189.15 332.589 189.297 331.392L190.985 331.762C190.906 332.498 191.114 333.158 191.609 333.742C192.123 334.313 192.888 334.71 193.904 334.933C194.795 335.128 195.537 335.069 196.129 334.757C196.737 334.448 197.109 333.98 197.245 333.355C197.341 332.917 197.278 332.527 197.058 332.184C196.838 331.841 196.527 331.543 196.123 331.291C195.739 331.027 195.2 330.72 194.506 330.372C193.607 329.913 192.888 329.493 192.349 329.113C191.809 328.732 191.381 328.254 191.065 327.677C190.768 327.087 190.71 326.378 190.89 325.55C191.027 324.925 191.34 324.387 191.832 323.938C192.323 323.489 192.946 323.183 193.702 323.021C194.458 322.859 195.273 322.874 196.149 323.066C197.524 323.367 198.557 323.962 199.247 324.851C199.941 325.723 200.187 326.776 199.983 328.009L198.342 327.65C198.459 326.889 198.293 326.222 197.845 325.649C197.416 325.064 196.733 324.668 195.795 324.463C194.966 324.281 194.252 324.329 193.651 324.607C193.05 324.885 192.686 325.313 192.56 325.891C192.451 326.391 192.509 326.838 192.734 327.232C192.979 327.613 193.307 327.947 193.719 328.234C194.135 328.505 194.702 328.834 195.42 329.221C196.288 329.673 196.969 330.076 197.465 330.431C197.961 330.785 198.355 331.232 198.647 331.771C198.939 332.309 199.011 332.956 198.863 333.71C198.713 334.397 198.39 334.974 197.896 335.439C197.405 335.888 196.789 336.195 196.049 336.361C195.309 336.526 194.501 336.513 193.626 336.321ZM205.35 322.748C205.022 322.676 204.766 322.497 204.583 322.212C204.399 321.926 204.345 321.611 204.42 321.267C204.495 320.923 204.674 320.667 204.956 320.5C205.242 320.317 205.549 320.261 205.877 320.333C206.205 320.405 206.461 320.584 206.644 320.87C206.831 321.14 206.887 321.447 206.812 321.791C206.737 322.135 206.556 322.398 206.271 322.581C205.985 322.765 205.678 322.82 205.35 322.748ZM205.644 325.343L202.851 338.146L201.21 337.787L204.003 324.984L205.644 325.343ZM214.769 327.147C215.973 327.41 216.959 327.921 217.727 328.679C218.495 329.437 218.98 330.289 219.184 331.234L219.792 328.444L221.433 328.804L218.569 341.935C218.314 343.107 217.829 344.09 217.115 344.884C216.417 345.681 215.562 346.223 214.55 346.509C213.535 346.81 212.449 346.834 211.292 346.581C209.651 346.221 208.369 345.531 207.445 344.509C206.537 343.491 206.097 342.281 206.125 340.878L207.742 341.233C207.829 342.186 208.205 343.013 208.871 343.716C209.552 344.422 210.463 344.9 211.604 345.15C212.432 345.332 213.214 345.315 213.949 345.099C214.68 344.899 215.309 344.496 215.834 343.891C216.359 343.285 216.724 342.513 216.928 341.575L217.619 338.41C217.021 339.196 216.214 339.781 215.197 340.164C214.199 340.535 213.098 340.589 211.895 340.325C210.723 340.068 209.728 339.563 208.909 338.811C208.106 338.061 207.548 337.128 207.235 336.011C206.938 334.898 206.932 333.684 207.219 332.371C207.505 331.058 208.013 329.966 208.744 329.094C209.494 328.21 210.387 327.603 211.425 327.274C212.483 326.932 213.597 326.89 214.769 327.147ZM218.396 334.845C218.621 333.814 218.608 332.861 218.356 331.987C218.105 331.113 217.658 330.384 217.015 329.801C216.388 329.221 215.637 328.836 214.762 328.644C213.856 328.445 212.999 328.47 212.191 328.719C211.383 328.968 210.683 329.437 210.091 330.126C209.518 330.803 209.115 331.673 208.883 332.736C208.655 333.783 208.657 334.75 208.889 335.637C209.141 336.511 209.58 337.238 210.207 337.817C210.837 338.381 211.605 338.763 212.512 338.961C213.387 339.153 214.23 339.117 215.041 338.852C215.868 338.591 216.577 338.116 217.17 337.427C217.762 336.738 218.171 335.877 218.396 334.845ZM231.232 330.705C232.764 331.041 233.91 331.792 234.671 332.958C235.436 334.108 235.622 335.582 235.23 337.38L233.593 344.883L231.976 344.529L233.571 337.213C233.875 335.822 233.755 334.681 233.212 333.793C232.685 332.907 231.819 332.333 230.616 332.069C229.381 331.798 228.311 331.973 227.406 332.594C226.501 333.215 225.883 334.283 225.552 335.799L224.028 342.787L222.387 342.428L225.18 329.625L226.821 329.984L226.345 332.165C226.922 331.472 227.638 331.007 228.492 330.768C229.35 330.514 230.263 330.493 231.232 330.705ZM72.8973 336.694L72.5955 338.077L63.476 336.079L63.7777 334.695L72.8973 336.694ZM77.3701 334.382C77.7898 332.983 78.5806 331.985 79.7425 331.388C80.9235 330.779 82.3032 330.647 83.8818 330.993C84.9289 331.223 85.7867 331.607 86.455 332.147C87.1234 332.686 87.5735 333.325 87.8054 334.064C88.0564 334.791 88.0932 335.561 87.9159 336.373C87.7011 337.358 87.2261 338.147 86.491 338.739C85.7559 339.332 84.8382 339.597 83.7379 339.536L83.7123 339.654C84.7742 340.116 85.5516 340.794 86.0443 341.688C86.5405 342.567 86.6573 343.608 86.3948 344.811C86.1015 346.156 85.4079 347.159 84.3139 347.82C83.2389 348.469 81.8496 348.606 80.1461 348.233C78.5206 347.877 77.2764 347.162 76.4134 346.088C75.5538 344.999 75.2163 343.656 75.401 342.058L76.9951 342.407C76.9074 343.486 77.1591 344.434 77.7505 345.251C78.3453 346.053 79.2444 346.586 80.4478 346.85C81.6356 347.11 82.6103 346.996 83.3719 346.508C84.1491 346.023 84.6433 345.296 84.8547 344.326C85.373 341.95 83.9208 340.387 80.498 339.637L79.9822 339.524L80.284 338.141L80.8232 338.259C84.0115 338.957 85.8324 338.267 86.2859 336.188C86.4837 335.281 86.3453 334.49 85.8707 333.812C85.3995 333.119 84.6169 332.653 83.5229 332.413C82.4601 332.18 81.5157 332.268 80.6896 332.677C79.8826 333.073 79.3075 333.758 78.9642 334.731L77.3701 334.382ZM97.2024 334.674C99.0154 335.071 100.499 335.74 101.653 336.681C102.807 337.622 103.593 338.785 104.011 340.171C104.43 341.557 104.453 343.101 104.081 344.805C103.713 346.494 103.05 347.88 102.093 348.964C101.14 350.033 99.9428 350.753 98.5024 351.126C97.0654 351.482 95.4404 351.462 93.6274 351.065L88.7746 350.001L92.3496 333.61L97.2024 334.674ZM93.924 349.705C96.2059 350.205 98.0703 349.991 99.5172 349.063C100.983 348.123 101.95 346.582 102.417 344.441C102.887 342.283 102.652 340.471 101.711 339.004C100.789 337.524 99.1876 336.534 96.9058 336.034L93.694 335.33L90.7122 349.001L93.924 349.705ZM120.188 339.711C122.001 340.108 123.485 340.778 124.639 341.718C125.793 342.659 126.579 343.823 126.997 345.208C127.415 346.594 127.439 348.139 127.067 349.843C126.699 351.531 126.036 352.917 125.079 354.001C124.126 355.07 122.929 355.791 121.488 356.163C120.051 356.519 118.426 356.499 116.613 356.102L111.76 355.038L115.335 338.648L120.188 339.711ZM116.91 354.742C119.192 355.242 121.056 355.028 122.503 354.1C123.969 353.16 124.936 351.619 125.403 349.478C125.873 347.321 125.638 345.508 124.697 344.041C123.775 342.561 122.173 341.571 119.892 341.071L116.68 340.367L113.698 354.038L116.91 354.742ZM141.433 354.146C141.311 354.708 141.201 355.135 141.105 355.425L130.485 353.098C130.321 354.077 130.375 354.957 130.646 355.737C130.918 356.518 131.359 357.163 131.968 357.673C132.581 358.168 133.294 358.504 134.106 358.682C135.169 358.915 136.116 358.853 136.948 358.494C137.795 358.139 138.431 357.55 138.856 356.726L140.591 357.106C140.006 358.288 139.111 359.165 137.905 359.736C136.719 360.295 135.352 360.405 133.805 360.066C132.601 359.802 131.581 359.3 130.743 358.56C129.909 357.804 129.326 356.873 128.994 355.768C128.681 354.651 128.669 353.429 128.959 352.1C129.249 350.771 129.768 349.665 130.518 348.781C131.268 347.897 132.177 347.293 133.246 346.971C134.316 346.648 135.46 346.621 136.679 346.888C137.898 347.155 138.903 347.653 139.693 348.384C140.5 349.117 141.046 349.99 141.333 351.003C141.639 352.004 141.672 353.051 141.433 354.146ZM139.779 353.734C140.003 352.784 139.985 351.928 139.725 351.167C139.481 350.409 139.052 349.783 138.44 349.288C137.827 348.794 137.114 348.457 136.302 348.279C135.083 348.012 133.958 348.175 132.928 348.768C131.898 349.362 131.181 350.359 130.777 351.761L139.779 353.734ZM147.263 363.015C145.794 362.693 144.664 362.093 143.873 361.216C143.1 360.326 142.788 359.283 142.934 358.086L144.622 358.456C144.543 359.192 144.751 359.852 145.246 360.436C145.76 361.007 146.525 361.404 147.541 361.627C148.432 361.822 149.174 361.763 149.766 361.451C150.374 361.142 150.746 360.674 150.882 360.049C150.978 359.611 150.915 359.221 150.695 358.878C150.475 358.535 150.164 358.237 149.76 357.985C149.376 357.721 148.837 357.414 148.143 357.066C147.244 356.607 146.525 356.187 145.986 355.807C145.446 355.426 145.019 354.948 144.702 354.371C144.405 353.781 144.347 353.072 144.527 352.244C144.664 351.619 144.978 351.081 145.469 350.632C145.96 350.183 146.583 349.877 147.339 349.715C148.095 349.553 148.91 349.568 149.786 349.76C151.161 350.061 152.194 350.656 152.884 351.545C153.578 352.417 153.824 353.47 153.62 354.703L151.979 354.344C152.096 353.583 151.93 352.916 151.482 352.343C151.053 351.758 150.37 351.362 149.432 351.157C148.604 350.975 147.889 351.023 147.288 351.301C146.687 351.579 146.323 352.007 146.197 352.585C146.088 353.085 146.146 353.532 146.371 353.926C146.616 354.307 146.944 354.641 147.357 354.928C147.772 355.199 148.339 355.528 149.057 355.915C149.925 356.367 150.607 356.77 151.102 357.125C151.598 357.479 151.992 357.926 152.284 358.465C152.576 359.004 152.648 359.65 152.5 360.404C152.35 361.092 152.027 361.668 151.533 362.133C151.042 362.582 150.426 362.889 149.686 363.055C148.946 363.22 148.138 363.207 147.263 363.015ZM158.987 349.442C158.659 349.37 158.403 349.191 158.22 348.906C158.036 348.62 157.982 348.305 158.057 347.961C158.132 347.617 158.311 347.361 158.593 347.194C158.879 347.011 159.186 346.955 159.514 347.027C159.842 347.099 160.098 347.278 160.281 347.564C160.468 347.834 160.524 348.141 160.449 348.485C160.374 348.829 160.193 349.092 159.908 349.276C159.622 349.459 159.315 349.514 158.987 349.442ZM159.281 352.037L156.488 364.84L154.847 364.481L157.64 351.678L159.281 352.037ZM168.406 353.841C169.61 354.104 170.596 354.615 171.364 355.373C172.132 356.131 172.618 356.983 172.821 357.928L173.429 355.138L175.07 355.498L172.206 368.629C171.951 369.801 171.466 370.784 170.752 371.578C170.055 372.375 169.2 372.917 168.187 373.203C167.172 373.504 166.086 373.528 164.929 373.275C163.288 372.915 162.006 372.225 161.082 371.203C160.174 370.185 159.734 368.975 159.762 367.572L161.379 367.927C161.466 368.88 161.842 369.707 162.508 370.41C163.189 371.116 164.1 371.594 165.241 371.844C166.069 372.026 166.851 372.009 167.586 371.793C168.317 371.593 168.946 371.19 169.471 370.585C169.996 369.979 170.361 369.207 170.565 368.269L171.256 365.104C170.658 365.89 169.851 366.475 168.834 366.858C167.836 367.229 166.736 367.283 165.532 367.019C164.36 366.762 163.365 366.257 162.546 365.505C161.743 364.755 161.185 363.822 160.872 362.705C160.575 361.592 160.569 360.378 160.856 359.065C161.142 357.752 161.651 356.66 162.381 355.788C163.131 354.904 164.025 354.297 165.063 353.968C166.12 353.626 167.234 353.584 168.406 353.841ZM172.033 361.539C172.258 360.508 172.245 359.555 171.993 358.681C171.742 357.807 171.295 357.078 170.652 356.495C170.026 355.915 169.274 355.53 168.399 355.338C167.493 355.139 166.636 355.164 165.828 355.413C165.021 355.662 164.321 356.131 163.728 356.82C163.155 357.497 162.752 358.367 162.52 359.43C162.292 360.478 162.294 361.444 162.526 362.331C162.778 363.205 163.217 363.932 163.844 364.511C164.474 365.075 165.242 365.457 166.149 365.655C167.024 365.847 167.867 365.811 168.678 365.546C169.505 365.285 170.214 364.81 170.807 364.121C171.399 363.432 171.808 362.571 172.033 361.539ZM184.87 357.399C186.401 357.735 187.548 358.486 188.309 359.652C189.073 360.802 189.259 362.276 188.867 364.074L187.23 371.577L185.613 371.223L187.209 363.907C187.512 362.516 187.392 361.376 186.849 360.487C186.322 359.601 185.456 359.027 184.253 358.763C183.018 358.492 181.948 358.667 181.043 359.288C180.138 359.909 179.52 360.977 179.19 362.494L177.665 369.481L176.024 369.122L178.817 356.319L180.458 356.678L179.982 358.859C180.559 358.166 181.275 357.701 182.129 357.462C182.987 357.208 183.901 357.187 184.87 357.399Z" fill="white"/>
</svg>
