<svg width="1280" height="233" viewBox="0 0 1280 233" fill="none" xmlns="http://www.w3.org/2000/svg">
<g clip-path="url(#clip0_996_1481)">
<path d="M361.993 222.472L361.993 153.901C361.993 119.23 365.204 93.6963 371.627 77.3007C377.87 61.128 389.633 47.6856 404.836 39.3533C422.536 29.9692 442.379 25.3663 462.403 25.9993C501.199 25.9993 528.86 34.7975 545.386 52.3941C561.912 69.9906 570.162 103.826 570.136 153.901V222.472L622.926 222.472V153.626C622.926 113.525 618.396 81.6868 609.337 58.1116C599.813 34.0001 582.517 13.7552 560.189 0.583444C536.535 -14.2196 505.48 -21.6211 467.024 -21.6211C429.612 -21.6211 399.04 -15.1725 375.308 -2.27533C352.284 9.77255 334.254 29.564 324.398 53.6081C314.216 78.0187 309.138 111.358 309.164 153.626V222.472H361.993Z" fill="#024341"/>
<path d="M745.891 -9.91131V46.7553C745.891 81.4001 749.116 106.933 755.564 123.355C761.792 139.537 773.56 152.984 788.773 161.303C806.459 170.687 826.29 175.29 846.301 174.657C885.149 174.657 912.824 165.858 929.324 148.262C945.824 130.665 954.074 96.8298 954.074 46.7553V-45L1006.86 -45V47.0294C1006.86 87.1307 1002.32 118.969 993.235 142.544C983.74 166.661 966.454 186.91 944.127 200.072C920.473 215.006 889.405 222.473 850.922 222.473C813.562 222.473 783.003 216.024 759.245 203.127C736.221 191.079 718.191 171.288 708.335 147.244C698.153 122.833 693.062 89.4935 693.062 47.2252V-9.91131L745.891 -9.91131Z" fill="#024341"/>
<path d="M743.85 -10.3439V35.8643L847.818 35.8643V-10.3439L743.85 -10.3439Z" fill="#024341"/>
<path d="M1129.91 222.472V153.901C1129.91 119.23 1133.13 93.6963 1139.58 77.3007C1145.81 61.119 1157.58 47.6722 1172.79 39.3533C1190.48 29.9691 1210.31 25.3658 1230.32 25.9993C1269.11 25.9993 1296.78 34.7975 1313.3 52.3941C1329.83 69.9906 1338.09 103.826 1338.09 153.901V222.472L1390.84 222.472V153.626C1390.84 113.525 1386.31 81.6868 1377.25 58.1116C1367.73 34.0107 1350.45 13.7688 1328.14 0.583444C1304.44 -14.2196 1273.37 -21.6211 1234.94 -21.6211C1197.58 -21.6211 1167.02 -15.1725 1143.26 -2.27533C1120.25 9.78875 1102.23 29.5749 1092.35 53.6081C1082.2 78.0187 1077.12 111.358 1077.12 153.626V222.472H1129.91Z" fill="#024341"/>
<path d="M1130.06 175.049V222.771L1233.46 222.771V175.049H1130.06Z" fill="#024341"/>
<path d="M362.102 175.049V222.771L465.498 222.771V175.049H362.102Z" fill="#024341"/>
<path d="M66.3984 -21.6211C104.881 -21.6211 135.95 -14.22 159.604 0.583008C181.931 13.7451 199.217 33.9949 208.712 58.1113C217.797 81.6864 222.34 113.525 222.34 153.626L222.34 222.473L169.55 222.473L169.55 153.9C169.55 103.826 161.3 69.9911 144.8 52.3945C128.3 34.798 100.626 25.9991 61.7783 25.999C41.7667 25.3656 21.9362 29.9693 4.25 39.3535C-10.9629 47.6724 -22.7308 61.1191 -28.959 77.3008C-35.4076 93.6963 -38.6318 119.23 -38.6318 153.9L-38.6318 222.473H-91.4609L-91.4609 153.626C-91.4609 142.33 -91.0974 131.671 -90.3701 121.65L-90.3701 -14.0693L-38.2305 -14.0693L-38.2305 3.60547L-39.4199 6.5459C-34.9586 3.26993 -30.2341 0.317869 -25.2783 -2.27539C-1.52047 -15.1725 29.0386 -21.621 66.3984 -21.6211Z" fill="#024341"/>
</g>
<path d="M0 0H1280V233H0V0Z" fill="url(#paint0_linear_996_1481)"/>
<defs>
<linearGradient id="paint0_linear_996_1481" x1="640" y1="-368.112" x2="640" y2="232.999" gradientUnits="userSpaceOnUse">
<stop stop-color="#0A0A0D" stop-opacity="0"/>
<stop offset="1" stop-color="#0A0A0D"/>
</linearGradient>
<clipPath id="clip0_996_1481">
<rect width="1280" height="224" fill="white"/>
</clipPath>
</defs>
</svg>
